<svg width="128" height="128" viewBox="0 0 128 128" fill="none" xmlns="http://www.w3.org/2000/svg">
<g clip-path="url(#clip0_35_2)">
<rect width="128" height="128" fill="white"/>
<g filter="url(#filter0_d_35_2)">
<circle cx="64" cy="36" r="31" fill="#D9D9D9"/>
<circle cx="64" cy="128" r="58" fill="#D9D9D9"/>
</g>
<path d="M34.7397 100.21V99.2727H41.2852V100.21H38.5408V108H37.484V100.21H34.7397ZM42.7798 108V101.455H43.7855V108H42.7798ZM43.2912 100.364C43.0952 100.364 42.9261 100.297 42.7841 100.163C42.6449 100.03 42.5753 99.8693 42.5753 99.6818C42.5753 99.4943 42.6449 99.3338 42.7841 99.2003C42.9261 99.0668 43.0952 99 43.2912 99C43.4872 99 43.6548 99.0668 43.794 99.2003C43.9361 99.3338 44.0071 99.4943 44.0071 99.6818C44.0071 99.8693 43.9361 100.03 43.794 100.163C43.6548 100.297 43.4872 100.364 43.2912 100.364ZM45.6275 110.455V101.455H46.5991V102.494H46.7184C46.7923 102.381 46.8945 102.236 47.0252 102.06C47.1587 101.881 47.3491 101.722 47.5962 101.582C47.8462 101.44 48.1843 101.369 48.6104 101.369C49.1616 101.369 49.6474 101.507 50.0678 101.783C50.4883 102.058 50.8164 102.449 51.0522 102.955C51.288 103.46 51.4059 104.057 51.4059 104.744C51.4059 105.438 51.288 106.038 51.0522 106.547C50.8164 107.053 50.4897 107.445 50.0721 107.723C49.6545 107.999 49.1729 108.136 48.6275 108.136C48.207 108.136 47.8704 108.067 47.6175 107.928C47.3647 107.786 47.1701 107.625 47.0337 107.446C46.8974 107.264 46.7923 107.114 46.7184 106.994H46.6332V110.455H45.6275ZM46.6161 104.727C46.6161 105.222 46.6886 105.658 46.8335 106.036C46.9783 106.411 47.19 106.705 47.4684 106.918C47.7468 107.128 48.0877 107.233 48.4911 107.233C48.9116 107.233 49.2624 107.122 49.5437 106.901C49.8278 106.676 50.0408 106.375 50.1829 105.997C50.3278 105.616 50.4002 105.193 50.4002 104.727C50.4002 104.267 50.3292 103.852 50.1871 103.483C50.0479 103.111 49.8363 102.817 49.5522 102.601C49.271 102.382 48.9173 102.273 48.4911 102.273C48.082 102.273 47.7383 102.376 47.4599 102.584C47.1815 102.788 46.9712 103.075 46.8292 103.445C46.6871 103.811 46.6161 104.239 46.6161 104.727ZM56.4513 108V99.2727H59.4002C60.0849 99.2727 60.6445 99.3963 61.0792 99.6435C61.5167 99.8878 61.8406 100.219 62.0508 100.636C62.261 101.054 62.3661 101.52 62.3661 102.034C62.3661 102.548 62.261 103.016 62.0508 103.436C61.8434 103.857 61.5224 104.192 61.0877 104.442C60.6531 104.689 60.0962 104.812 59.4173 104.812H57.3036V103.875H59.3832C59.8519 103.875 60.2283 103.794 60.5124 103.632C60.7965 103.47 61.0025 103.251 61.1303 102.976C61.261 102.697 61.3263 102.384 61.3263 102.034C61.3263 101.685 61.261 101.372 61.1303 101.097C61.0025 100.821 60.7951 100.605 60.5082 100.449C60.2212 100.29 59.8406 100.21 59.3661 100.21H57.5082V108H56.4513ZM66.6062 108.136C65.9755 108.136 65.4315 107.997 64.9741 107.719C64.5195 107.438 64.1687 107.045 63.9215 106.543C63.6772 106.037 63.555 105.449 63.555 104.778C63.555 104.108 63.6772 103.517 63.9215 103.006C64.1687 102.491 64.5124 102.091 64.9528 101.804C65.396 101.514 65.913 101.369 66.5039 101.369C66.8448 101.369 67.1815 101.426 67.5138 101.54C67.8462 101.653 68.1488 101.838 68.4215 102.094C68.6942 102.347 68.9116 102.682 69.0735 103.099C69.2354 103.517 69.3164 104.031 69.3164 104.642V105.068H64.271V104.199H68.2937C68.2937 103.83 68.2198 103.5 68.0721 103.21C67.9272 102.92 67.7198 102.692 67.4499 102.524C67.1829 102.357 66.8675 102.273 66.5039 102.273C66.1033 102.273 65.7567 102.372 65.4641 102.571C65.1744 102.767 64.9513 103.023 64.7951 103.338C64.6388 103.653 64.5607 103.991 64.5607 104.352V104.932C64.5607 105.426 64.646 105.845 64.8164 106.189C64.9897 106.53 65.2298 106.79 65.5366 106.969C65.8434 107.145 66.1999 107.233 66.6062 107.233C66.8704 107.233 67.109 107.196 67.3221 107.122C67.538 107.045 67.7241 106.932 67.8803 106.781C68.0366 106.628 68.1573 106.437 68.2425 106.21L69.2141 106.483C69.1119 106.812 68.94 107.102 68.6985 107.352C68.457 107.599 68.1587 107.793 67.8036 107.932C67.4485 108.068 67.0494 108.136 66.6062 108.136ZM70.8462 108V101.455H71.8178V102.443H71.886C72.0053 102.119 72.2212 101.857 72.5337 101.655C72.8462 101.453 73.1985 101.352 73.5906 101.352C73.6644 101.352 73.7567 101.354 73.8675 101.357C73.9783 101.359 74.0621 101.364 74.119 101.369V102.392C74.0849 102.384 74.0067 102.371 73.8846 102.354C73.7653 102.334 73.6388 102.324 73.5053 102.324C73.1871 102.324 72.9031 102.391 72.6531 102.524C72.4059 102.655 72.2099 102.837 72.065 103.07C71.9229 103.3 71.8519 103.562 71.8519 103.858V108H70.8462ZM79.9474 102.92L79.044 103.176C78.9872 103.026 78.9034 102.879 78.7926 102.737C78.6847 102.592 78.5369 102.473 78.3494 102.379C78.1619 102.286 77.9219 102.239 77.6293 102.239C77.2287 102.239 76.8949 102.331 76.6278 102.516C76.3636 102.697 76.2315 102.929 76.2315 103.21C76.2315 103.46 76.3224 103.658 76.5043 103.803C76.6861 103.947 76.9702 104.068 77.3565 104.165L78.3281 104.403C78.9134 104.545 79.3494 104.763 79.6364 105.055C79.9233 105.345 80.0668 105.719 80.0668 106.176C80.0668 106.551 79.9588 106.886 79.7429 107.182C79.5298 107.477 79.2315 107.71 78.848 107.881C78.4645 108.051 78.0185 108.136 77.5099 108.136C76.8423 108.136 76.2898 107.991 75.8523 107.702C75.4148 107.412 75.1378 106.989 75.0213 106.432L75.9759 106.193C76.0668 106.545 76.2386 106.81 76.4915 106.986C76.7472 107.162 77.081 107.25 77.4929 107.25C77.9616 107.25 78.3338 107.151 78.6094 106.952C78.8878 106.75 79.027 106.509 79.027 106.227C79.027 106 78.9474 105.81 78.7884 105.656C78.6293 105.5 78.3849 105.384 78.0554 105.307L76.9645 105.051C76.3651 104.909 75.9247 104.689 75.6435 104.391C75.3651 104.089 75.2259 103.713 75.2259 103.261C75.2259 102.892 75.3295 102.565 75.5369 102.281C75.7472 101.997 76.0327 101.774 76.3935 101.612C76.7571 101.45 77.169 101.369 77.6293 101.369C78.277 101.369 78.7855 101.511 79.1548 101.795C79.527 102.08 79.7912 102.455 79.9474 102.92ZM84.2397 108.136C83.6488 108.136 83.1303 107.996 82.6843 107.714C82.2411 107.433 81.8945 107.04 81.6445 106.534C81.3974 106.028 81.2738 105.437 81.2738 104.761C81.2738 104.08 81.3974 103.484 81.6445 102.976C81.8945 102.467 82.2411 102.072 82.6843 101.791C83.1303 101.51 83.6488 101.369 84.2397 101.369C84.8306 101.369 85.3477 101.51 85.7908 101.791C86.2369 102.072 86.5835 102.467 86.8306 102.976C87.0806 103.484 87.2056 104.08 87.2056 104.761C87.2056 105.437 87.0806 106.028 86.8306 106.534C86.5835 107.04 86.2369 107.433 85.7908 107.714C85.3477 107.996 84.8306 108.136 84.2397 108.136ZM84.2397 107.233C84.6886 107.233 85.0579 107.118 85.3477 106.888C85.6374 106.658 85.8519 106.355 85.9911 105.98C86.1303 105.605 86.1999 105.199 86.1999 104.761C86.1999 104.324 86.1303 103.916 85.9911 103.538C85.8519 103.161 85.6374 102.855 85.3477 102.622C85.0579 102.389 84.6886 102.273 84.2397 102.273C83.7908 102.273 83.4215 102.389 83.1317 102.622C82.842 102.855 82.6275 103.161 82.4883 103.538C82.3491 103.916 82.2795 104.324 82.2795 104.761C82.2795 105.199 82.3491 105.605 82.4883 105.98C82.6275 106.355 82.842 106.658 83.1317 106.888C83.4215 107.118 83.7908 107.233 84.2397 107.233ZM89.7464 104.062V108H88.7408V101.455H89.7124V102.477H89.7976C89.951 102.145 90.1839 101.878 90.4964 101.676C90.8089 101.472 91.2124 101.369 91.7067 101.369C92.1499 101.369 92.5376 101.46 92.87 101.642C93.2024 101.821 93.4609 102.094 93.6456 102.46C93.8303 102.824 93.9226 103.284 93.9226 103.841V108H92.9169V103.909C92.9169 103.395 92.7834 102.994 92.5163 102.707C92.2493 102.418 91.8828 102.273 91.4169 102.273C91.0959 102.273 90.8089 102.342 90.5561 102.482C90.3061 102.621 90.1087 102.824 89.9638 103.091C89.8189 103.358 89.7464 103.682 89.7464 104.062ZM32.0998 123V114.273H35.0487C35.7333 114.273 36.293 114.396 36.7276 114.643C37.1651 114.888 37.489 115.219 37.6992 115.636C37.9094 116.054 38.0146 116.52 38.0146 117.034C38.0146 117.548 37.9094 118.016 37.6992 118.436C37.4918 118.857 37.1708 119.192 36.7362 119.442C36.3015 119.689 35.7447 119.812 35.0657 119.812H32.9521V118.875H35.0316C35.5004 118.875 35.8768 118.794 36.1609 118.632C36.445 118.47 36.6509 118.251 36.7788 117.976C36.9094 117.697 36.9748 117.384 36.9748 117.034C36.9748 116.685 36.9094 116.372 36.7788 116.097C36.6509 115.821 36.4435 115.605 36.1566 115.449C35.8697 115.29 35.489 115.21 35.0146 115.21H33.1566V123H32.0998ZM40.5863 114.273V123H39.5806V114.273H40.5863ZM44.3544 123.153C43.9396 123.153 43.5632 123.075 43.2251 122.919C42.8871 122.76 42.6186 122.531 42.4197 122.233C42.2209 121.932 42.1214 121.568 42.1214 121.142C42.1214 120.767 42.1953 120.463 42.343 120.23C42.4908 119.994 42.6882 119.81 42.9354 119.676C43.1825 119.543 43.4553 119.443 43.7536 119.378C44.0547 119.31 44.3572 119.256 44.6612 119.216C45.0589 119.165 45.3814 119.126 45.6286 119.101C45.8786 119.072 46.0604 119.026 46.174 118.96C46.2905 118.895 46.3487 118.781 46.3487 118.619V118.585C46.3487 118.165 46.2337 117.838 46.0036 117.605C45.7763 117.372 45.4311 117.256 44.968 117.256C44.4879 117.256 44.1115 117.361 43.8388 117.571C43.5661 117.781 43.3743 118.006 43.2635 118.244L42.3089 117.903C42.4794 117.506 42.7067 117.196 42.9908 116.974C43.2777 116.75 43.5902 116.594 43.9283 116.506C44.2692 116.415 44.6044 116.369 44.9339 116.369C45.1442 116.369 45.3857 116.395 45.6584 116.446C45.9339 116.494 46.1996 116.595 46.4553 116.749C46.7138 116.902 46.9283 117.134 47.0987 117.443C47.2692 117.753 47.3544 118.168 47.3544 118.688V123H46.3487V122.114H46.2976C46.2294 122.256 46.1158 122.408 45.9567 122.57C45.7976 122.732 45.5859 122.869 45.3217 122.983C45.0575 123.097 44.7351 123.153 44.3544 123.153ZM44.5078 122.25C44.9055 122.25 45.2408 122.172 45.5135 122.016C45.7891 121.859 45.9964 121.658 46.1357 121.411C46.2777 121.163 46.3487 120.903 46.3487 120.631V119.71C46.3061 119.761 46.2124 119.808 46.0675 119.851C45.9254 119.891 45.7607 119.926 45.5732 119.957C45.3885 119.986 45.2081 120.011 45.032 120.034C44.8587 120.054 44.718 120.071 44.6101 120.085C44.3487 120.119 44.1044 120.175 43.8771 120.251C43.6527 120.325 43.4709 120.437 43.3317 120.588C43.1953 120.736 43.1271 120.937 43.1271 121.193C43.1271 121.543 43.2564 121.807 43.5149 121.986C43.7763 122.162 44.1072 122.25 44.5078 122.25ZM51.8491 123.136C51.2354 123.136 50.707 122.991 50.2638 122.702C49.8207 122.412 49.4798 122.013 49.2411 121.504C49.0025 120.996 48.8832 120.415 48.8832 119.761C48.8832 119.097 49.0053 118.51 49.2496 118.001C49.4968 117.49 49.8406 117.091 50.2809 116.804C50.7241 116.514 51.2411 116.369 51.832 116.369C52.2923 116.369 52.707 116.455 53.0763 116.625C53.4457 116.795 53.7482 117.034 53.984 117.341C54.2198 117.648 54.3661 118.006 54.4229 118.415H53.4173C53.3406 118.116 53.1701 117.852 52.9059 117.622C52.6445 117.389 52.2923 117.273 51.8491 117.273C51.457 117.273 51.1133 117.375 50.8178 117.58C50.5252 117.781 50.2965 118.067 50.1317 118.436C49.9698 118.803 49.8888 119.233 49.8888 119.727C49.8888 120.233 49.9684 120.673 50.1275 121.048C50.2894 121.423 50.5167 121.714 50.8093 121.922C51.1048 122.129 51.4513 122.233 51.8491 122.233C52.1104 122.233 52.3477 122.188 52.5607 122.097C52.7738 122.006 52.9542 121.875 53.1019 121.705C53.2496 121.534 53.3548 121.33 53.4173 121.091H54.4229C54.3661 121.477 54.2255 121.825 54.0011 122.135C53.7795 122.442 53.4854 122.686 53.119 122.868C52.7553 123.047 52.332 123.136 51.8491 123.136ZM58.6374 123.136C58.0067 123.136 57.4627 122.997 57.0053 122.719C56.5508 122.438 56.1999 122.045 55.9528 121.543C55.7085 121.037 55.5863 120.449 55.5863 119.778C55.5863 119.108 55.7085 118.517 55.9528 118.006C56.1999 117.491 56.5437 117.091 56.984 116.804C57.4272 116.514 57.9442 116.369 58.5352 116.369C58.8761 116.369 59.2127 116.426 59.5451 116.54C59.8775 116.653 60.18 116.838 60.4528 117.094C60.7255 117.347 60.9428 117.682 61.1048 118.099C61.2667 118.517 61.3477 119.031 61.3477 119.642V120.068H56.3022V119.199H60.3249C60.3249 118.83 60.2511 118.5 60.1033 118.21C59.9585 117.92 59.7511 117.692 59.4812 117.524C59.2141 117.357 58.8988 117.273 58.5352 117.273C58.1346 117.273 57.788 117.372 57.4954 117.571C57.2056 117.767 56.9826 118.023 56.8263 118.338C56.6701 118.653 56.592 118.991 56.592 119.352V119.932C56.592 120.426 56.6772 120.845 56.8477 121.189C57.021 121.53 57.261 121.79 57.5678 121.969C57.8746 122.145 58.2312 122.233 58.6374 122.233C58.9016 122.233 59.1403 122.196 59.3533 122.122C59.5692 122.045 59.7553 121.932 59.9116 121.781C60.0678 121.628 60.1886 121.437 60.2738 121.21L61.2454 121.483C61.1431 121.812 60.9712 122.102 60.7298 122.352C60.4883 122.599 60.19 122.793 59.8349 122.932C59.4798 123.068 59.0806 123.136 58.6374 123.136ZM63.8832 119.062V123H62.8775V114.273H63.8832V117.477H63.9684C64.1218 117.139 64.3519 116.871 64.6587 116.672C64.9684 116.47 65.3803 116.369 65.8945 116.369C66.3406 116.369 66.7312 116.459 67.0664 116.638C67.4016 116.814 67.6616 117.085 67.8462 117.452C68.0337 117.815 68.1275 118.278 68.1275 118.841V123H67.1218V118.909C67.1218 118.389 66.9869 117.987 66.717 117.703C66.4499 117.416 66.0792 117.273 65.6048 117.273C65.2752 117.273 64.9798 117.342 64.7184 117.482C64.4599 117.621 64.2553 117.824 64.1048 118.091C63.957 118.358 63.8832 118.682 63.8832 119.062ZM72.6264 123.136C72.0355 123.136 71.517 122.996 71.071 122.714C70.6278 122.433 70.2812 122.04 70.0312 121.534C69.7841 121.028 69.6605 120.437 69.6605 119.761C69.6605 119.08 69.7841 118.484 70.0312 117.976C70.2812 117.467 70.6278 117.072 71.071 116.791C71.517 116.51 72.0355 116.369 72.6264 116.369C73.2173 116.369 73.7344 116.51 74.1776 116.791C74.6236 117.072 74.9702 117.467 75.2173 117.976C75.4673 118.484 75.5923 119.08 75.5923 119.761C75.5923 120.437 75.4673 121.028 75.2173 121.534C74.9702 122.04 74.6236 122.433 74.1776 122.714C73.7344 122.996 73.2173 123.136 72.6264 123.136ZM72.6264 122.233C73.0753 122.233 73.4446 122.118 73.7344 121.888C74.0241 121.658 74.2386 121.355 74.3778 120.98C74.517 120.605 74.5866 120.199 74.5866 119.761C74.5866 119.324 74.517 118.916 74.3778 118.538C74.2386 118.161 74.0241 117.855 73.7344 117.622C73.4446 117.389 73.0753 117.273 72.6264 117.273C72.1776 117.273 71.8082 117.389 71.5185 117.622C71.2287 117.855 71.0142 118.161 70.875 118.538C70.7358 118.916 70.6662 119.324 70.6662 119.761C70.6662 120.199 70.7358 120.605 70.875 120.98C71.0142 121.355 71.2287 121.658 71.5185 121.888C71.8082 122.118 72.1776 122.233 72.6264 122.233ZM78.1332 114.273V123H77.1275V114.273H78.1332ZM82.4467 123.136C81.9013 123.136 81.4197 122.999 81.0021 122.723C80.5845 122.445 80.2578 122.053 80.022 121.547C79.7862 121.038 79.6683 120.438 79.6683 119.744C79.6683 119.057 79.7862 118.46 80.022 117.955C80.2578 117.449 80.5859 117.058 81.0064 116.783C81.4268 116.507 81.9126 116.369 82.4638 116.369C82.8899 116.369 83.2266 116.44 83.4737 116.582C83.7237 116.722 83.9141 116.881 84.0447 117.06C84.1783 117.236 84.282 117.381 84.3558 117.494H84.4411V114.273H85.4467V123H84.4751V121.994H84.3558C84.282 122.114 84.1768 122.264 84.0405 122.446C83.9041 122.625 83.7095 122.786 83.4567 122.928C83.2038 123.067 82.8672 123.136 82.4467 123.136ZM82.5831 122.233C82.9865 122.233 83.3274 122.128 83.6058 121.918C83.8842 121.705 84.0959 121.411 84.2408 121.036C84.3857 120.658 84.4581 120.222 84.4581 119.727C84.4581 119.239 84.3871 118.811 84.245 118.445C84.103 118.075 83.8928 117.788 83.6143 117.584C83.3359 117.376 82.9922 117.273 82.5831 117.273C82.157 117.273 81.8018 117.382 81.5178 117.601C81.2365 117.817 81.0249 118.111 80.8828 118.483C80.7436 118.852 80.674 119.267 80.674 119.727C80.674 120.193 80.745 120.616 80.8871 120.997C81.032 121.375 81.245 121.676 81.5263 121.901C81.8104 122.122 82.1626 122.233 82.5831 122.233ZM90.1726 123.136C89.5419 123.136 88.9979 122.997 88.5405 122.719C88.0859 122.438 87.7351 122.045 87.4879 121.543C87.2436 121.037 87.1214 120.449 87.1214 119.778C87.1214 119.108 87.2436 118.517 87.4879 118.006C87.7351 117.491 88.0788 117.091 88.5192 116.804C88.9624 116.514 89.4794 116.369 90.0703 116.369C90.4112 116.369 90.7479 116.426 91.0803 116.54C91.4126 116.653 91.7152 116.838 91.9879 117.094C92.2607 117.347 92.478 117.682 92.6399 118.099C92.8018 118.517 92.8828 119.031 92.8828 119.642V120.068H87.8374V119.199H91.8601C91.8601 118.83 91.7862 118.5 91.6385 118.21C91.4936 117.92 91.2862 117.692 91.0163 117.524C90.7493 117.357 90.4339 117.273 90.0703 117.273C89.6697 117.273 89.3232 117.372 89.0305 117.571C88.7408 117.767 88.5178 118.023 88.3615 118.338C88.2053 118.653 88.1271 118.991 88.1271 119.352V119.932C88.1271 120.426 88.2124 120.845 88.3828 121.189C88.5561 121.53 88.7962 121.79 89.103 121.969C89.4098 122.145 89.7663 122.233 90.1726 122.233C90.4368 122.233 90.6754 122.196 90.8885 122.122C91.1044 122.045 91.2905 121.932 91.4467 121.781C91.603 121.628 91.7237 121.437 91.8089 121.21L92.7805 121.483C92.6783 121.812 92.5064 122.102 92.2649 122.352C92.0234 122.599 91.7251 122.793 91.37 122.932C91.0149 123.068 90.6158 123.136 90.1726 123.136ZM94.4126 123V116.455H95.3842V117.443H95.4524C95.5717 117.119 95.7876 116.857 96.1001 116.655C96.4126 116.453 96.7649 116.352 97.157 116.352C97.2308 116.352 97.3232 116.354 97.4339 116.357C97.5447 116.359 97.6286 116.364 97.6854 116.369V117.392C97.6513 117.384 97.5732 117.371 97.451 117.354C97.3317 117.334 97.2053 117.324 97.0717 117.324C96.7536 117.324 96.4695 117.391 96.2195 117.524C95.9723 117.655 95.7763 117.837 95.6314 118.07C95.4893 118.3 95.4183 118.562 95.4183 118.858V123H94.4126Z" fill="black"/>
</g>
<defs>
<filter id="filter0_d_35_2" x="-2" y="1" width="132" height="197" filterUnits="userSpaceOnUse" color-interpolation-filters="sRGB">
<feFlood flood-opacity="0" result="BackgroundImageFix"/>
<feColorMatrix in="SourceAlpha" type="matrix" values="0 0 0 0 0 0 0 0 0 0 0 0 0 0 0 0 0 0 127 0" result="hardAlpha"/>
<feOffset dy="4"/>
<feGaussianBlur stdDeviation="4"/>
<feComposite in2="hardAlpha" operator="out"/>
<feColorMatrix type="matrix" values="0 0 0 0 0 0 0 0 0 0 0 0 0 0 0 0 0 0 0.25 0"/>
<feBlend mode="normal" in2="BackgroundImageFix" result="effect1_dropShadow_35_2"/>
<feBlend mode="normal" in="SourceGraphic" in2="effect1_dropShadow_35_2" result="shape"/>
</filter>
<clipPath id="clip0_35_2">
<rect width="128" height="128" fill="white"/>
</clipPath>
</defs>
</svg>
