<svg width="144" height="144" viewBox="0 0 144 144" fill="none" xmlns="http://www.w3.org/2000/svg">
<g filter="url(#filter0_i_1_2)">
<path d="M128.887 85.0468C132.42 71.8635 131.504 57.883 126.281 45.2736C121.058 32.6642 111.82 22.1306 100 15.3064C88.1802 8.48226 74.4389 5.74896 60.9074 7.53042C47.3758 9.31188 34.8102 15.5086 25.1594 25.1594C15.5086 34.8102 9.31188 47.3758 7.53042 60.9074C5.74895 74.4389 8.48226 88.1802 15.3064 100C22.1306 111.82 32.6642 121.058 45.2736 126.281C57.883 131.504 71.8635 132.42 85.0468 128.887L78.6281 104.932C70.7181 107.052 62.3298 106.502 54.7642 103.368C47.1985 100.235 40.8784 94.6919 36.7839 87.6C32.6894 80.5081 31.0494 72.2634 32.1183 64.1444C33.1871 56.0255 36.9051 48.4861 42.6956 42.6956C48.4861 36.9051 56.0255 33.1871 64.1444 32.1183C72.2634 31.0494 80.5081 32.6894 87.6 36.7839C94.6919 40.8784 100.235 47.1985 103.368 54.7642C106.502 62.3298 107.052 70.7181 104.932 78.6281L128.887 85.0468Z" fill="#51FFA1"/>
</g>
<g filter="url(#filter1_i_1_2)">
<rect x="86.7938" y="69.0446" width="71.0023" height="25.1011" transform="rotate(45 86.7938 69.0446)" fill="#51FFA1"/>
</g>
<defs>
<filter id="filter0_i_1_2" x="6.99994" y="6.99991" width="124" height="128" filterUnits="userSpaceOnUse" color-interpolation-filters="sRGB">
<feFlood flood-opacity="0" result="BackgroundImageFix"/>
<feBlend mode="normal" in="SourceGraphic" in2="BackgroundImageFix" result="shape"/>
<feColorMatrix in="SourceAlpha" type="matrix" values="0 0 0 0 0 0 0 0 0 0 0 0 0 0 0 0 0 0 127 0" result="hardAlpha"/>
<feOffset dy="4"/>
<feGaussianBlur stdDeviation="3.5"/>
<feComposite in2="hardAlpha" operator="arithmetic" k2="-1" k3="1"/>
<feColorMatrix type="matrix" values="0 0 0 0 0 0 0 0 0 0 0 0 0 0 0 0 0 0 0.25 0"/>
<feBlend mode="normal" in2="shape" result="effect1_innerShadow_1_2"/>
</filter>
<filter id="filter1_i_1_2" x="69.0446" y="69.0446" width="67.9554" height="71.9554" filterUnits="userSpaceOnUse" color-interpolation-filters="sRGB">
<feFlood flood-opacity="0" result="BackgroundImageFix"/>
<feBlend mode="normal" in="SourceGraphic" in2="BackgroundImageFix" result="shape"/>
<feColorMatrix in="SourceAlpha" type="matrix" values="0 0 0 0 0 0 0 0 0 0 0 0 0 0 0 0 0 0 127 0" result="hardAlpha"/>
<feOffset dy="4"/>
<feGaussianBlur stdDeviation="3.5"/>
<feComposite in2="hardAlpha" operator="arithmetic" k2="-1" k3="1"/>
<feColorMatrix type="matrix" values="0 0 0 0 0 0 0 0 0 0 0 0 0 0 0 0 0 0 0.25 0"/>
<feBlend mode="normal" in2="shape" result="effect1_innerShadow_1_2"/>
</filter>
</defs>
</svg>
