<svg width="645" height="410" viewBox="0 0 645 410" fill="none" xmlns="http://www.w3.org/2000/svg">
<rect width="645" height="410" rx="20" fill="white"/>
<rect x="432" y="327" width="189" height="68" rx="20" fill="#7B7B7B"/>
<rect x="558" y="336" width="50" height="50" rx="20" fill="#979797"/>
<rect x="501" y="336" width="50" height="50" rx="20" fill="#979797"/>
<rect x="444" y="336" width="50" height="50" rx="20" fill="#979797"/>
<rect x="24" y="15" width="76" height="128" rx="20" fill="#7B7B7B"/>
<rect x="37" y="80" width="50" height="50" rx="20" fill="#979797"/>
<rect x="37" y="29" width="50" height="50" rx="20" fill="#979797"/>
<rect x="24" y="327" width="133" height="68" rx="20" fill="#7B7B7B"/>
<rect x="94" y="336" width="50" height="50" rx="20" fill="#979797"/>
<rect x="37" y="336" width="50" height="50" rx="20" fill="#979797"/>
<rect x="108" y="15" width="436" height="306" rx="20" fill="#7B7B7B"/>
<rect x="115" y="117" width="422" height="196" rx="20" fill="#979797"/>
<rect x="338" y="221" width="189" height="82" rx="20" fill="#CECECE"/>
<rect x="125" y="221" width="189" height="82" rx="20" fill="#CECECE"/>
<rect x="338" y="127" width="189" height="82" rx="20" fill="#CECECE"/>
<rect x="125" y="127" width="189" height="82" rx="20" fill="#CECECE"/>
<rect x="126" y="26" width="401" height="82" rx="20" fill="#CECECE"/>
<path d="M50.5367 52.5455C50.4941 52.1856 50.3212 51.9062 50.0182 51.7074C49.7152 51.5085 49.3435 51.4091 48.9031 51.4091C48.5812 51.4091 48.2994 51.4612 48.058 51.5653C47.8189 51.6695 47.6318 51.8127 47.4969 51.995C47.3643 52.1773 47.298 52.3845 47.298 52.6165C47.298 52.8106 47.3442 52.9775 47.4365 53.1172C47.5312 53.2545 47.652 53.3693 47.7987 53.4616C47.9455 53.5516 48.0994 53.6262 48.2604 53.6854C48.4214 53.7422 48.5693 53.7884 48.7043 53.8239L49.4429 54.0227C49.6323 54.0724 49.843 54.1411 50.075 54.2287C50.3094 54.3163 50.5331 54.4358 50.7462 54.5874C50.9616 54.7365 51.1392 54.9283 51.2789 55.1626C51.4185 55.397 51.4884 55.6847 51.4884 56.0256C51.4884 56.4186 51.3854 56.7737 51.1794 57.0909C50.9758 57.4081 50.6775 57.6603 50.2845 57.8473C49.8939 58.0343 49.4192 58.1278 48.8605 58.1278C48.3397 58.1278 47.8887 58.0438 47.5075 57.8757C47.1288 57.7076 46.8305 57.4732 46.6127 57.1726C46.3972 56.8719 46.2753 56.5227 46.2469 56.125H47.156C47.1797 56.3996 47.272 56.6269 47.433 56.8068C47.5963 56.9844 47.8023 57.117 48.0509 57.2045C48.3018 57.2898 48.5717 57.3324 48.8605 57.3324C49.1967 57.3324 49.4986 57.2779 49.7661 57.169C50.0336 57.0578 50.2455 56.9039 50.4017 56.7074C50.558 56.5085 50.6361 56.2765 50.6361 56.0114C50.6361 55.7699 50.5686 55.5734 50.4337 55.4219C50.2987 55.2704 50.1212 55.1473 49.901 55.0526C49.6808 54.9579 49.4429 54.875 49.1872 54.804L48.2923 54.5483C47.7242 54.3849 47.2744 54.1518 46.9429 53.8487C46.6115 53.5457 46.4458 53.1491 46.4458 52.6591C46.4458 52.2519 46.5558 51.8968 46.776 51.5938C46.9985 51.2884 47.2968 51.0516 47.6709 50.8835C48.0473 50.7131 48.4675 50.6278 48.9316 50.6278C49.4003 50.6278 49.817 50.7119 50.1816 50.88C50.5461 51.0457 50.835 51.273 51.048 51.5618C51.2635 51.8506 51.3771 52.1785 51.3889 52.5455H50.5367ZM58.7886 53H57.9079C57.8559 52.7467 57.7647 52.5241 57.6345 52.3324C57.5067 52.1406 57.3504 51.9796 57.1657 51.8494C56.9835 51.7169 56.781 51.6174 56.5585 51.5511C56.336 51.4848 56.104 51.4517 55.8625 51.4517C55.4221 51.4517 55.0232 51.563 54.6657 51.7855C54.3106 52.008 54.0277 52.3359 53.817 52.7692C53.6087 53.2024 53.5045 53.7339 53.5045 54.3636C53.5045 54.9934 53.6087 55.5249 53.817 55.9581C54.0277 56.3913 54.3106 56.7192 54.6657 56.9418C55.0232 57.1643 55.4221 57.2756 55.8625 57.2756C56.104 57.2756 56.336 57.2424 56.5585 57.1761C56.781 57.1098 56.9835 57.0116 57.1657 56.8814C57.3504 56.7488 57.5067 56.5866 57.6345 56.3949C57.7647 56.2008 57.8559 55.9782 57.9079 55.7273H58.7886C58.7223 56.099 58.6016 56.4316 58.4264 56.7251C58.2512 57.0187 58.0334 57.2685 57.773 57.4744C57.5126 57.678 57.2202 57.8331 56.8959 57.9396C56.5739 58.0462 56.2294 58.0994 55.8625 58.0994C55.2422 58.0994 54.6906 57.9479 54.2077 57.6449C53.7247 57.3419 53.3447 56.911 53.0677 56.3523C52.7907 55.7936 52.6523 55.1307 52.6523 54.3636C52.6523 53.5966 52.7907 52.9337 53.0677 52.375C53.3447 51.8163 53.7247 51.3854 54.2077 51.0824C54.6906 50.7794 55.2422 50.6278 55.8625 50.6278C56.2294 50.6278 56.5739 50.6811 56.8959 50.7876C57.2202 50.8942 57.5126 51.0504 57.773 51.2564C58.0334 51.46 58.2512 51.7086 58.4264 52.0021C58.6016 52.2933 58.7223 52.6259 58.7886 53ZM66.3481 54.3636C66.3481 55.1307 66.2096 55.7936 65.9326 56.3523C65.6556 56.911 65.2757 57.3419 64.7927 57.6449C64.3097 57.9479 63.7581 58.0994 63.1379 58.0994C62.5176 58.0994 61.966 57.9479 61.483 57.6449C61.0001 57.3419 60.6201 56.911 60.3431 56.3523C60.0661 55.7936 59.9276 55.1307 59.9276 54.3636C59.9276 53.5966 60.0661 52.9337 60.3431 52.375C60.6201 51.8163 61.0001 51.3854 61.483 51.0824C61.966 50.7794 62.5176 50.6278 63.1379 50.6278C63.7581 50.6278 64.3097 50.7794 64.7927 51.0824C65.2757 51.3854 65.6556 51.8163 65.9326 52.375C66.2096 52.9337 66.3481 53.5966 66.3481 54.3636ZM65.4958 54.3636C65.4958 53.7339 65.3905 53.2024 65.1798 52.7692C64.9714 52.3359 64.6885 52.008 64.3311 51.7855C63.9759 51.563 63.5782 51.4517 63.1379 51.4517C62.6975 51.4517 62.2986 51.563 61.9411 51.7855C61.586 52.008 61.3031 52.3359 61.0924 52.7692C60.8841 53.2024 60.7799 53.7339 60.7799 54.3636C60.7799 54.9934 60.8841 55.5249 61.0924 55.9581C61.3031 56.3913 61.586 56.7192 61.9411 56.9418C62.2986 57.1643 62.6975 57.2756 63.1379 57.2756C63.5782 57.2756 63.9759 57.1643 64.3311 56.9418C64.6885 56.7192 64.9714 56.3913 65.1798 55.9581C65.3905 55.5249 65.4958 54.9934 65.4958 54.3636ZM67.8289 58V50.7273H70.2863C70.8545 50.7273 71.3209 50.8243 71.6855 51.0185C72.05 51.2102 72.3199 51.4742 72.4951 51.8104C72.6703 52.1465 72.7579 52.5289 72.7579 52.9574C72.7579 53.3859 72.6703 53.7659 72.4951 54.0973C72.3199 54.4287 72.0512 54.6892 71.689 54.8786C71.3268 55.0656 70.864 55.1591 70.3005 55.1591H68.3119V54.3636H70.2721C70.6604 54.3636 70.9729 54.3068 71.2096 54.1932C71.4487 54.0795 71.6215 53.9186 71.7281 53.7102C71.837 53.4995 71.8914 53.2486 71.8914 52.9574C71.8914 52.6662 71.837 52.4117 71.7281 52.1939C71.6192 51.9761 71.4452 51.808 71.2061 51.6896C70.9669 51.5689 70.6509 51.5085 70.2579 51.5085H68.7096V58H67.8289ZM71.2522 54.733L73.042 58H72.0193L70.2579 54.733H71.2522ZM74.2254 58V50.7273H78.6146V51.5085H75.1061V53.9659H78.3873V54.7472H75.1061V57.2188H78.6714V58H74.2254Z" fill="white"/>
<path d="M48.3296 103.545C48.287 103.186 48.1142 102.906 47.8112 102.707C47.5081 102.509 47.1365 102.409 46.6961 102.409C46.3741 102.409 46.0924 102.461 45.8509 102.565C45.6118 102.67 45.4248 102.813 45.2899 102.995C45.1573 103.177 45.091 103.384 45.091 103.616C45.091 103.811 45.1372 103.978 45.2295 104.117C45.3242 104.254 45.4449 104.369 45.5917 104.462C45.7385 104.552 45.8924 104.626 46.0534 104.685C46.2143 104.742 46.3623 104.788 46.4972 104.824L47.2359 105.023C47.4253 105.072 47.636 105.141 47.868 105.229C48.1024 105.316 48.3261 105.436 48.5392 105.587C48.7546 105.737 48.9321 105.928 49.0718 106.163C49.2115 106.397 49.2813 106.685 49.2813 107.026C49.2813 107.419 49.1784 107.774 48.9724 108.091C48.7688 108.408 48.4705 108.66 48.0775 108.847C47.6869 109.034 47.2122 109.128 46.6535 109.128C46.1327 109.128 45.6817 109.044 45.3005 108.876C44.9217 108.708 44.6234 108.473 44.4056 108.173C44.1902 107.872 44.0683 107.523 44.0399 107.125H44.949C44.9726 107.4 45.065 107.627 45.2259 107.807C45.3893 107.984 45.5953 108.117 45.8438 108.205C46.0948 108.29 46.3647 108.332 46.6535 108.332C46.9897 108.332 47.2915 108.278 47.559 108.169C47.8266 108.058 48.0384 107.904 48.1947 107.707C48.3509 107.509 48.4291 107.277 48.4291 107.011C48.4291 106.77 48.3616 106.573 48.2267 106.422C48.0917 106.27 47.9142 106.147 47.694 106.053C47.4738 105.958 47.2359 105.875 46.9802 105.804L46.0853 105.548C45.5171 105.385 45.0673 105.152 44.7359 104.849C44.4044 104.546 44.2387 104.149 44.2387 103.659C44.2387 103.252 44.3488 102.897 44.569 102.594C44.7915 102.288 45.0898 102.052 45.4639 101.884C45.8403 101.713 46.2605 101.628 46.7245 101.628C47.1933 101.628 47.6099 101.712 47.9745 101.88C48.3391 102.046 48.6279 102.273 48.841 102.562C49.0564 102.851 49.1701 103.179 49.1819 103.545H48.3296ZM50.3316 102.509V101.727H55.7861V102.509H53.4992V109H52.6185V102.509H50.3316ZM56.594 109H55.6707L58.3412 101.727H59.2503L61.9207 109H60.9974L58.8241 102.878H58.7673L56.594 109ZM56.9349 106.159H60.6565V106.94H56.9349V106.159ZM61.8062 102.509V101.727H67.2607V102.509H64.9738V109H64.0931V102.509H61.8062ZM73.3927 101.727H74.2733V106.543C74.2733 107.04 74.1562 107.484 73.9218 107.874C73.6898 108.263 73.3619 108.569 72.9381 108.794C72.5144 109.017 72.0172 109.128 71.4466 109.128C70.8761 109.128 70.3789 109.017 69.9552 108.794C69.5314 108.569 69.2023 108.263 68.968 107.874C68.7359 107.484 68.6199 107.04 68.6199 106.543V101.727H69.5006V106.472C69.5006 106.827 69.5787 107.143 69.735 107.42C69.8912 107.694 70.1138 107.911 70.4026 108.07C70.6938 108.226 71.0418 108.304 71.4466 108.304C71.8515 108.304 72.1995 108.226 72.4907 108.07C72.7819 107.911 73.0044 107.694 73.1583 107.42C73.3145 107.143 73.3927 106.827 73.3927 106.472V101.727ZM80.0093 103.545C79.9667 103.186 79.7939 102.906 79.4909 102.707C79.1878 102.509 78.8161 102.409 78.3758 102.409C78.0538 102.409 77.7721 102.461 77.5306 102.565C77.2915 102.67 77.1045 102.813 76.9695 102.995C76.837 103.177 76.7707 103.384 76.7707 103.616C76.7707 103.811 76.8169 103.978 76.9092 104.117C77.0039 104.254 77.1246 104.369 77.2714 104.462C77.4182 104.552 77.5721 104.626 77.733 104.685C77.894 104.742 78.042 104.788 78.1769 104.824L78.9156 105.023C79.105 105.072 79.3157 105.141 79.5477 105.229C79.782 105.316 80.0058 105.436 80.2188 105.587C80.4343 105.737 80.6118 105.928 80.7515 106.163C80.8912 106.397 80.961 106.685 80.961 107.026C80.961 107.419 80.858 107.774 80.6521 108.091C80.4485 108.408 80.1502 108.66 79.7572 108.847C79.3666 109.034 78.8919 109.128 78.3332 109.128C77.8124 109.128 77.3614 109.044 76.9802 108.876C76.6014 108.708 76.3031 108.473 76.0853 108.173C75.8699 107.872 75.748 107.523 75.7195 107.125H76.6286C76.6523 107.4 76.7446 107.627 76.9056 107.807C77.069 107.984 77.2749 108.117 77.5235 108.205C77.7745 108.29 78.0444 108.332 78.3332 108.332C78.6694 108.332 78.9712 108.278 79.2387 108.169C79.5062 108.058 79.7181 107.904 79.8744 107.707C80.0306 107.509 80.1088 107.277 80.1088 107.011C80.1088 106.77 80.0413 106.573 79.9063 106.422C79.7714 106.27 79.5938 106.147 79.3737 106.053C79.1535 105.958 78.9156 105.875 78.6599 105.804L77.765 105.548C77.1968 105.385 76.747 105.152 76.4156 104.849C76.0841 104.546 75.9184 104.149 75.9184 103.659C75.9184 103.252 76.0285 102.897 76.2487 102.594C76.4712 102.288 76.7695 102.052 77.1436 101.884C77.52 101.713 77.9402 101.628 78.4042 101.628C78.873 101.628 79.2896 101.712 79.6542 101.88C80.0188 102.046 80.3076 102.273 80.5207 102.562C80.7361 102.851 80.8498 103.179 80.8616 103.545H80.0093Z" fill="white"/>
<path d="M51.3836 359V351.727H52.2643V354.966H56.1421V351.727H57.0228V359H56.1421V355.747H52.2643V359H51.3836ZM59.6666 351.727V359H58.786V351.727H59.6666ZM67.1995 351.727V359H66.3472L62.3841 353.29H62.3131V359H61.4324V351.727H62.2847L66.262 357.452H66.333V351.727H67.1995ZM68.564 352.509V351.727H74.0186V352.509H71.7316V359H70.8509V352.509H68.564ZM42.8853 364.509V363.727H48.3398V364.509H46.0529V371H45.1722V364.509H42.8853ZM55.5327 367.364C55.5327 368.131 55.3942 368.794 55.1172 369.352C54.8402 369.911 54.4602 370.342 53.9773 370.645C53.4943 370.948 52.9427 371.099 52.3224 371.099C51.7022 371.099 51.1506 370.948 50.6676 370.645C50.1847 370.342 49.8047 369.911 49.5277 369.352C49.2507 368.794 49.1122 368.131 49.1122 367.364C49.1122 366.597 49.2507 365.934 49.5277 365.375C49.8047 364.816 50.1847 364.385 50.6676 364.082C51.1506 363.779 51.7022 363.628 52.3224 363.628C52.9427 363.628 53.4943 363.779 53.9773 364.082C54.4602 364.385 54.8402 364.816 55.1172 365.375C55.3942 365.934 55.5327 366.597 55.5327 367.364ZM54.6804 367.364C54.6804 366.734 54.575 366.202 54.3643 365.769C54.156 365.336 53.8731 365.008 53.5156 364.786C53.1605 364.563 52.7628 364.452 52.3224 364.452C51.8821 364.452 51.4832 364.563 51.1257 364.786C50.7706 365.008 50.4877 365.336 50.277 365.769C50.0687 366.202 49.9645 366.734 49.9645 367.364C49.9645 367.993 50.0687 368.525 50.277 368.958C50.4877 369.391 50.7706 369.719 51.1257 369.942C51.4832 370.164 51.8821 370.276 52.3224 370.276C52.7628 370.276 53.1605 370.164 53.5156 369.942C53.8731 369.719 54.156 369.391 54.3643 368.958C54.575 368.525 54.6804 367.993 54.6804 367.364ZM61.9851 366C61.907 365.761 61.804 365.547 61.6761 365.357C61.5507 365.165 61.4003 365.002 61.2251 364.867C61.0523 364.732 60.8558 364.629 60.6357 364.558C60.4155 364.487 60.174 364.452 59.9112 364.452C59.4804 364.452 59.0885 364.563 58.7358 364.786C58.383 365.008 58.1025 365.336 57.8942 365.769C57.6858 366.202 57.5817 366.734 57.5817 367.364C57.5817 367.993 57.687 368.525 57.8977 368.958C58.1084 369.391 58.3937 369.719 58.7536 369.942C59.1134 370.164 59.5182 370.276 59.968 370.276C60.3847 370.276 60.7517 370.187 61.0689 370.009C61.3885 369.829 61.6371 369.576 61.8146 369.249C61.9946 368.92 62.0845 368.533 62.0845 368.088L62.3544 368.145H60.1669V367.364H62.9368V368.145C62.9368 368.744 62.8089 369.265 62.5533 369.707C62.3 370.15 61.9496 370.493 61.5021 370.737C61.0571 370.979 60.5457 371.099 59.968 371.099C59.3241 371.099 58.7583 370.948 58.2706 370.645C57.7853 370.342 57.4065 369.911 57.1342 369.352C56.8643 368.794 56.7294 368.131 56.7294 367.364C56.7294 366.788 56.8063 366.271 56.9602 365.812C57.1165 365.35 57.3366 364.957 57.6207 364.633C57.9048 364.308 58.241 364.06 58.6293 363.887C59.0175 363.714 59.4448 363.628 59.9112 363.628C60.2947 363.628 60.6522 363.686 60.9837 363.802C61.3175 363.915 61.6146 364.078 61.875 364.288C62.1378 364.497 62.3568 364.746 62.532 365.038C62.7071 365.326 62.8279 365.647 62.8942 366H61.9851ZM69.4167 366C69.3386 365.761 69.2356 365.547 69.1078 365.357C68.9823 365.165 68.832 365.002 68.6568 364.867C68.484 364.732 68.2875 364.629 68.0673 364.558C67.8471 364.487 67.6056 364.452 67.3429 364.452C66.912 364.452 66.5202 364.563 66.1674 364.786C65.8147 365.008 65.5342 365.336 65.3258 365.769C65.1175 366.202 65.0133 366.734 65.0133 367.364C65.0133 367.993 65.1187 368.525 65.3294 368.958C65.5401 369.391 65.8253 369.719 66.1852 369.942C66.545 370.164 66.9499 370.276 67.3997 370.276C67.8163 370.276 68.1833 370.187 68.5005 370.009C68.8201 369.829 69.0687 369.576 69.2463 369.249C69.4262 368.92 69.5162 368.533 69.5162 368.088L69.786 368.145H67.5985V367.364H70.3684V368.145C70.3684 368.744 70.2406 369.265 69.9849 369.707C69.7316 370.15 69.3812 370.493 68.9338 370.737C68.4887 370.979 67.9773 371.099 67.3997 371.099C66.7557 371.099 66.1899 370.948 65.7022 370.645C65.2169 370.342 64.8381 369.911 64.5659 369.352C64.296 368.794 64.161 368.131 64.161 367.364C64.161 366.788 64.238 366.271 64.3919 365.812C64.5481 365.35 64.7683 364.957 65.0524 364.633C65.3365 364.308 65.6726 364.06 66.0609 363.887C66.4492 363.714 66.8765 363.628 67.3429 363.628C67.7264 363.628 68.0839 363.686 68.4153 363.802C68.7491 363.915 69.0462 364.078 69.3066 364.288C69.5694 364.497 69.7884 364.746 69.9636 365.038C70.1388 365.326 70.2595 365.647 70.3258 366H69.4167ZM71.8768 371V363.727H72.7575V370.219H76.1381V371H71.8768ZM77.5018 371V363.727H81.891V364.509H78.3825V366.966H81.6637V367.747H78.3825V370.219H81.9478V371H77.5018Z" fill="white"/>
<path d="M108.384 359V351.727H109.264V354.966H113.142V351.727H114.023V359H113.142V355.747H109.264V359H108.384ZM116.667 351.727V359H115.786V351.727H116.667ZM124.199 351.727V359H123.347L119.384 353.29H119.313V359H118.432V351.727H119.285L123.262 357.452H123.333V351.727H124.199ZM125.564 352.509V351.727H131.019V352.509H128.732V359H127.851V352.509H125.564ZM107.371 364.509V363.727H112.825V364.509H110.538V371H109.658V364.509H107.371ZM114.184 371V363.727H118.574V364.509H115.065V366.966H118.346V367.747H115.065V370.219H118.63V371H114.184ZM120.587 363.727L122.462 366.753H122.519L124.394 363.727H125.431L123.144 367.364L125.431 371H124.394L122.519 368.031H122.462L120.587 371H119.55L121.894 367.364L119.55 363.727H120.587ZM126.179 364.509V363.727H131.634V364.509H129.347V371H128.466V364.509H126.179Z" fill="white"/>
<path d="M447.437 365V357.727H449.895C450.463 357.727 450.929 357.824 451.294 358.018C451.658 358.21 451.928 358.474 452.104 358.81C452.279 359.147 452.366 359.529 452.366 359.957C452.366 360.386 452.279 360.766 452.104 361.097C451.928 361.429 451.66 361.689 451.297 361.879C450.935 362.066 450.472 362.159 449.909 362.159H447.92V361.364H449.881C450.269 361.364 450.581 361.307 450.818 361.193C451.057 361.08 451.23 360.919 451.336 360.71C451.445 360.5 451.5 360.249 451.5 359.957C451.5 359.666 451.445 359.412 451.336 359.194C451.228 358.976 451.054 358.808 450.814 358.69C450.575 358.569 450.259 358.509 449.866 358.509H448.318V365H447.437ZM450.861 361.733L452.65 365H451.628L449.866 361.733H450.861ZM453.834 365V357.727H458.223V358.509H454.714V360.966H457.996V361.747H454.714V364.219H458.28V365H453.834ZM463.788 359.545C463.745 359.186 463.572 358.906 463.269 358.707C462.966 358.509 462.594 358.409 462.154 358.409C461.832 358.409 461.55 358.461 461.309 358.565C461.07 358.67 460.883 358.813 460.748 358.995C460.615 359.177 460.549 359.384 460.549 359.616C460.549 359.811 460.595 359.978 460.688 360.117C460.782 360.254 460.903 360.369 461.05 360.462C461.196 360.552 461.35 360.626 461.511 360.685C461.672 360.742 461.82 360.788 461.955 360.824L462.694 361.023C462.883 361.072 463.094 361.141 463.326 361.229C463.56 361.316 463.784 361.436 463.997 361.587C464.213 361.737 464.39 361.928 464.53 362.163C464.67 362.397 464.739 362.685 464.739 363.026C464.739 363.419 464.636 363.774 464.43 364.091C464.227 364.408 463.929 364.66 463.536 364.847C463.145 365.034 462.67 365.128 462.112 365.128C461.591 365.128 461.14 365.044 460.759 364.876C460.38 364.708 460.081 364.473 459.864 364.173C459.648 363.872 459.526 363.523 459.498 363.125H460.407C460.431 363.4 460.523 363.627 460.684 363.807C460.847 363.984 461.053 364.117 461.302 364.205C461.553 364.29 461.823 364.332 462.112 364.332C462.448 364.332 462.75 364.278 463.017 364.169C463.285 364.058 463.496 363.904 463.653 363.707C463.809 363.509 463.887 363.277 463.887 363.011C463.887 362.77 463.82 362.573 463.685 362.422C463.55 362.27 463.372 362.147 463.152 362.053C462.932 361.958 462.694 361.875 462.438 361.804L461.543 361.548C460.975 361.385 460.525 361.152 460.194 360.849C459.862 360.546 459.697 360.149 459.697 359.659C459.697 359.252 459.807 358.897 460.027 358.594C460.25 358.288 460.548 358.052 460.922 357.884C461.298 357.713 461.719 357.628 462.183 357.628C462.651 357.628 463.068 357.712 463.433 357.88C463.797 358.046 464.086 358.273 464.299 358.562C464.514 358.851 464.628 359.179 464.64 359.545H463.788ZM465.79 358.509V357.727H471.244V358.509H468.957V365H468.077V358.509H465.79ZM472.052 365H471.129L473.799 357.727H474.708L477.379 365H476.455L474.282 358.878H474.225L472.052 365ZM472.393 362.159H476.115V362.94H472.393V362.159ZM478.512 365V357.727H480.969C481.537 357.727 482.003 357.824 482.368 358.018C482.733 358.21 483.003 358.474 483.178 358.81C483.353 359.147 483.441 359.529 483.441 359.957C483.441 360.386 483.353 360.766 483.178 361.097C483.003 361.429 482.734 361.689 482.372 361.879C482.009 362.066 481.547 362.159 480.983 362.159H478.994V361.364H480.955C481.343 361.364 481.655 361.307 481.892 361.193C482.131 361.08 482.304 360.919 482.411 360.71C482.52 360.5 482.574 360.249 482.574 359.957C482.574 359.666 482.52 359.412 482.411 359.194C482.302 358.976 482.128 358.808 481.889 358.69C481.65 358.569 481.334 358.509 480.941 358.509H479.392V365H478.512ZM481.935 361.733L483.725 365H482.702L480.941 361.733H481.935ZM484.51 358.509V357.727H489.965V358.509H487.678V365H486.797V358.509H484.51Z" fill="white"/>
<path d="M514.021 365V357.727H516.564C517.071 357.727 517.488 357.815 517.817 357.99C518.147 358.163 518.392 358.396 518.553 358.69C518.714 358.981 518.794 359.304 518.794 359.659C518.794 359.972 518.738 360.23 518.627 360.433C518.518 360.637 518.374 360.798 518.194 360.916C518.016 361.035 517.823 361.122 517.615 361.179V361.25C517.838 361.264 518.061 361.342 518.286 361.484C518.511 361.626 518.699 361.83 518.851 362.095C519.002 362.36 519.078 362.685 519.078 363.068C519.078 363.433 518.995 363.761 518.83 364.052C518.664 364.343 518.402 364.574 518.045 364.744C517.687 364.915 517.222 365 516.649 365H514.021ZM514.902 364.219H516.649C517.224 364.219 517.633 364.107 517.874 363.885C518.118 363.66 518.24 363.388 518.24 363.068C518.24 362.822 518.177 362.595 518.052 362.386C517.926 362.176 517.748 362.008 517.516 361.882C517.284 361.754 517.009 361.69 516.692 361.69H514.902V364.219ZM514.902 360.923H516.536C516.801 360.923 517.04 360.871 517.253 360.767C517.468 360.663 517.639 360.516 517.764 360.327C517.892 360.137 517.956 359.915 517.956 359.659C517.956 359.339 517.845 359.068 517.622 358.846C517.4 358.621 517.047 358.509 516.564 358.509H514.902V360.923ZM520.824 365H519.9L522.571 357.727H523.48L526.15 365H525.227L523.054 358.878H522.997L520.824 365ZM521.164 362.159H524.886V362.94H521.164V362.159ZM532.794 360H531.913C531.861 359.747 531.77 359.524 531.639 359.332C531.512 359.141 531.355 358.98 531.171 358.849C530.988 358.717 530.786 358.617 530.563 358.551C530.341 358.485 530.109 358.452 529.867 358.452C529.427 358.452 529.028 358.563 528.671 358.786C528.316 359.008 528.033 359.336 527.822 359.769C527.614 360.202 527.509 360.734 527.509 361.364C527.509 361.993 527.614 362.525 527.822 362.958C528.033 363.391 528.316 363.719 528.671 363.942C529.028 364.164 529.427 364.276 529.867 364.276C530.109 364.276 530.341 364.242 530.563 364.176C530.786 364.11 530.988 364.012 531.171 363.881C531.355 363.749 531.512 363.587 531.639 363.395C531.77 363.201 531.861 362.978 531.913 362.727H532.794C532.727 363.099 532.606 363.432 532.431 363.725C532.256 364.019 532.038 364.268 531.778 364.474C531.517 364.678 531.225 364.833 530.901 364.94C530.579 365.046 530.234 365.099 529.867 365.099C529.247 365.099 528.695 364.948 528.213 364.645C527.73 364.342 527.35 363.911 527.073 363.352C526.796 362.794 526.657 362.131 526.657 361.364C526.657 360.597 526.796 359.934 527.073 359.375C527.35 358.816 527.73 358.385 528.213 358.082C528.695 357.779 529.247 357.628 529.867 357.628C530.234 357.628 530.579 357.681 530.901 357.788C531.225 357.894 531.517 358.05 531.778 358.256C532.038 358.46 532.256 358.709 532.431 359.002C532.606 359.293 532.727 359.626 532.794 360ZM534.217 365V357.727H535.097V361.335H535.183L538.45 357.727H539.6L536.546 361.009L539.6 365H538.535L536.006 361.619L535.097 362.642V365H534.217Z" fill="white"/>
<path d="M575.979 357.727V365H575.127L571.163 359.29H571.092V365H570.212V357.727H571.064L575.041 363.452H575.112V357.727H575.979ZM577.741 365V357.727H582.13V358.509H578.622V360.966H581.903V361.747H578.622V364.219H582.187V365H577.741ZM584.144 357.727L586.019 360.753H586.076L587.951 357.727H588.987L586.701 361.364L588.987 365H587.951L586.076 362.031H586.019L584.144 365H583.107L585.451 361.364L583.107 357.727H584.144ZM589.736 358.509V357.727H595.19V358.509H592.903V365H592.023V358.509H589.736Z" fill="white"/>
<path d="M235.771 70.3182H238.185L240.21 72.9815L240.742 73.6918L243.761 77.7045H241.346L239.357 75.0412L238.86 74.3665L235.771 70.3182ZM244.506 66.9091C244.506 68.8267 244.16 70.4839 243.468 71.8807C242.775 73.2775 241.825 74.3546 240.618 75.1122C239.411 75.8698 238.032 76.2486 236.481 76.2486C234.93 76.2486 233.551 75.8698 232.344 75.1122C231.136 74.3546 230.187 73.2775 229.494 71.8807C228.802 70.4839 228.455 68.8267 228.455 66.9091C228.455 64.9915 228.802 63.3343 229.494 61.9375C230.187 60.5407 231.136 59.4635 232.344 58.706C233.551 57.9484 234.93 57.5696 236.481 57.5696C238.032 57.5696 239.411 57.9484 240.618 58.706C241.825 59.4635 242.775 60.5407 243.468 61.9375C244.16 63.3343 244.506 64.9915 244.506 66.9091ZM242.376 66.9091C242.376 65.3348 242.112 64.006 241.586 62.9229C241.065 61.8398 240.358 61.0201 239.464 60.4638C238.576 59.9074 237.582 59.6293 236.481 59.6293C235.38 59.6293 234.383 59.9074 233.489 60.4638C232.601 61.0201 231.894 61.8398 231.367 62.9229C230.846 64.006 230.586 65.3348 230.586 66.9091C230.586 68.4834 230.846 69.8121 231.367 70.8952C231.894 71.9783 232.601 72.7981 233.489 73.3544C234.383 73.9107 235.38 74.1889 236.481 74.1889C237.582 74.1889 238.576 73.9107 239.464 73.3544C240.358 72.7981 241.065 71.9783 241.586 70.8952C242.112 69.8121 242.376 68.4834 242.376 66.9091ZM260.14 57.8182H262.342V69.8565C262.342 71.0994 262.049 72.2092 261.463 73.1857C260.883 74.1564 260.063 74.9228 259.004 75.4851C257.945 76.0414 256.702 76.3196 255.275 76.3196C253.849 76.3196 252.606 76.0414 251.547 75.4851C250.487 74.9228 249.665 74.1564 249.079 73.1857C248.499 72.2092 248.209 71.0994 248.209 69.8565V57.8182H250.41V69.679C250.41 70.5668 250.606 71.3569 250.996 72.0494C251.387 72.7359 251.943 73.2775 252.665 73.674C253.393 74.0646 254.263 74.2599 255.275 74.2599C256.287 74.2599 257.157 74.0646 257.885 73.674C258.613 73.2775 259.17 72.7359 259.554 72.0494C259.945 71.3569 260.14 70.5668 260.14 69.679V57.8182ZM266.739 76V57.8182H277.712V59.7713H268.941V65.9148H277.144V67.8679H268.941V74.0469H277.854V76H266.739ZM291.623 62.3636C291.517 61.464 291.085 60.7656 290.327 60.2685C289.57 59.7713 288.64 59.5227 287.54 59.5227C286.735 59.5227 286.03 59.6529 285.427 59.9134C284.829 60.1738 284.361 60.5318 284.024 60.9876C283.693 61.4433 283.527 61.9612 283.527 62.5412C283.527 63.0265 283.642 63.4438 283.873 63.793C284.11 64.1362 284.412 64.4233 284.779 64.6541C285.146 64.879 285.53 65.0655 285.933 65.2134C286.335 65.3555 286.705 65.4709 287.042 65.5597L288.889 66.0568C289.363 66.1811 289.889 66.3527 290.469 66.5717C291.055 66.7907 291.615 67.0896 292.147 67.4684C292.686 67.8413 293.13 68.3207 293.479 68.9066C293.828 69.4925 294.003 70.2116 294.003 71.0639C294.003 72.0464 293.745 72.9342 293.23 73.7273C292.721 74.5204 291.976 75.1507 290.993 75.6183C290.017 76.0858 288.83 76.3196 287.433 76.3196C286.131 76.3196 285.003 76.1095 284.051 75.6893C283.104 75.2691 282.358 74.6831 281.813 73.9315C281.275 73.1798 280.97 72.3068 280.899 71.3125H283.172C283.231 71.9991 283.462 72.5672 283.864 73.017C284.273 73.4609 284.787 73.7924 285.409 74.0114C286.036 74.2244 286.711 74.331 287.433 74.331C288.273 74.331 289.028 74.1948 289.697 73.9226C290.366 73.6444 290.895 73.2597 291.286 72.7685C291.677 72.2713 291.872 71.6913 291.872 71.0284C291.872 70.4247 291.703 69.9335 291.366 69.5547C291.029 69.1759 290.585 68.8681 290.034 68.6314C289.484 68.3946 288.889 68.1875 288.25 68.0099L286.013 67.3707C284.592 66.9624 283.468 66.3794 282.639 65.6218C281.81 64.8642 281.396 63.8729 281.396 62.6477C281.396 61.6297 281.671 60.742 282.222 59.9844C282.778 59.2209 283.524 58.629 284.459 58.2088C285.4 57.7827 286.451 57.5696 287.611 57.5696C288.782 57.5696 289.824 57.7797 290.736 58.1999C291.647 58.6142 292.369 59.1824 292.902 59.9045C293.44 60.6265 293.724 61.4463 293.754 62.3636H291.623ZM296.628 59.7713V57.8182H310.265V59.7713H304.547V76H302.346V59.7713H296.628ZM315.864 57.8182V76H313.663V57.8182H315.864ZM335.62 66.9091C335.62 68.8267 335.274 70.4839 334.581 71.8807C333.889 73.2775 332.939 74.3546 331.731 75.1122C330.524 75.8698 329.145 76.2486 327.594 76.2486C326.044 76.2486 324.665 75.8698 323.457 75.1122C322.25 74.3546 321.3 73.2775 320.607 71.8807C319.915 70.4839 319.569 68.8267 319.569 66.9091C319.569 64.9915 319.915 63.3343 320.607 61.9375C321.3 60.5407 322.25 59.4635 323.457 58.706C324.665 57.9484 326.044 57.5696 327.594 57.5696C329.145 57.5696 330.524 57.9484 331.731 58.706C332.939 59.4635 333.889 60.5407 334.581 61.9375C335.274 63.3343 335.62 64.9915 335.62 66.9091ZM333.489 66.9091C333.489 65.3348 333.226 64.006 332.699 62.9229C332.178 61.8398 331.471 61.0201 330.577 60.4638C329.689 59.9074 328.695 59.6293 327.594 59.6293C326.493 59.6293 325.496 59.9074 324.602 60.4638C323.715 61.0201 323.007 61.8398 322.481 62.9229C321.96 64.006 321.699 65.3348 321.699 66.9091C321.699 68.4834 321.96 69.8121 322.481 70.8952C323.007 71.9783 323.715 72.7981 324.602 73.3544C325.496 73.9107 326.493 74.1889 327.594 74.1889C328.695 74.1889 329.689 73.9107 330.577 73.3544C331.471 72.7981 332.178 71.9783 332.699 70.8952C333.226 69.8121 333.489 68.4834 333.489 66.9091ZM353.739 57.8182V76H351.609L341.701 61.7244H341.524V76H339.322V57.8182H341.453L351.396 72.1293H351.573V57.8182H353.739ZM364.182 59.7713V57.8182H377.818V59.7713H372.101V76H369.899V59.7713H364.182ZM381.216 76V57.8182H392.189V59.7713H383.418V65.9148H391.621V67.8679H383.418V74.0469H392.331V76H381.216ZM397.223 57.8182L401.911 65.3821H402.053L406.74 57.8182H409.332L403.615 66.9091L409.332 76H406.74L402.053 68.5781H401.911L397.223 76H394.631L400.49 66.9091L394.631 57.8182H397.223ZM411.203 59.7713V57.8182H424.84V59.7713H419.123V76H416.921V59.7713H411.203Z" fill="white"/>
<path d="M169.286 177H166.978L173.654 158.818H175.926L182.603 177H180.294L174.861 161.695H174.719L169.286 177ZM170.138 169.898H179.442V171.851H170.138V169.898ZM199.852 158.818V177H197.722L187.814 162.724H187.636V177H185.435V158.818H187.565L197.508 173.129H197.686V158.818H199.852ZM214.201 163.364C214.095 162.464 213.662 161.766 212.905 161.268C212.147 160.771 211.218 160.523 210.117 160.523C209.312 160.523 208.608 160.653 208.004 160.913C207.407 161.174 206.939 161.532 206.602 161.988C206.27 162.443 206.104 162.961 206.104 163.541C206.104 164.027 206.22 164.444 206.451 164.793C206.687 165.136 206.989 165.423 207.356 165.654C207.723 165.879 208.108 166.065 208.51 166.213C208.913 166.355 209.283 166.471 209.62 166.56L211.467 167.057C211.94 167.181 212.467 167.353 213.047 167.572C213.633 167.791 214.192 168.09 214.725 168.468C215.263 168.841 215.707 169.321 216.057 169.907C216.406 170.493 216.58 171.212 216.58 172.064C216.58 173.046 216.323 173.934 215.808 174.727C215.299 175.52 214.553 176.151 213.571 176.618C212.594 177.086 211.407 177.32 210.011 177.32C208.709 177.32 207.581 177.109 206.628 176.689C205.681 176.269 204.936 175.683 204.391 174.931C203.852 174.18 203.548 173.307 203.477 172.312H205.749C205.809 172.999 206.039 173.567 206.442 174.017C206.85 174.461 207.365 174.792 207.987 175.011C208.614 175.224 209.289 175.331 210.011 175.331C210.851 175.331 211.606 175.195 212.275 174.923C212.943 174.644 213.473 174.26 213.864 173.768C214.254 173.271 214.45 172.691 214.45 172.028C214.45 171.425 214.281 170.933 213.944 170.555C213.606 170.176 213.162 169.868 212.612 169.631C212.061 169.395 211.467 169.187 210.827 169.01L208.59 168.371C207.17 167.962 206.045 167.379 205.217 166.622C204.388 165.864 203.974 164.873 203.974 163.648C203.974 162.63 204.249 161.742 204.799 160.984C205.356 160.221 206.101 159.629 207.037 159.209C207.978 158.783 209.028 158.57 210.188 158.57C211.36 158.57 212.402 158.78 213.313 159.2C214.225 159.614 214.947 160.182 215.479 160.904C216.018 161.627 216.302 162.446 216.332 163.364H214.201ZM223.503 177L218.531 158.818H220.768L224.568 173.626H224.746L228.616 158.818H231.102L234.973 173.626H235.151L238.95 158.818H241.187L236.216 177H233.943L229.93 162.511H229.788L225.776 177H223.503ZM243.931 177V158.818H254.904V160.771H246.132V166.915H254.336V168.868H246.132V175.047H255.046V177H243.931ZM258.872 177V158.818H265.016C266.436 158.818 267.602 159.061 268.513 159.546C269.425 160.026 270.1 160.685 270.538 161.526C270.976 162.366 271.195 163.322 271.195 164.393C271.195 165.465 270.976 166.415 270.538 167.243C270.1 168.072 269.428 168.723 268.522 169.196C267.617 169.664 266.46 169.898 265.051 169.898H260.08V167.909H264.98C265.951 167.909 266.732 167.767 267.324 167.483C267.922 167.199 268.354 166.796 268.62 166.276C268.892 165.749 269.028 165.121 269.028 164.393C269.028 163.665 268.892 163.029 268.62 162.485C268.348 161.94 267.913 161.52 267.315 161.224C266.717 160.922 265.927 160.771 264.945 160.771H261.074V177H258.872ZM267.43 168.832L271.905 177H269.348L264.945 168.832H267.43Z" fill="white"/>
<path d="M266.333 127H265.225L268.429 118.273H269.52L272.725 127H271.617L269.009 119.653H268.941L266.333 127ZM266.742 123.591H271.208V124.528H266.742V123.591ZM281.005 118.273V127H279.982L275.226 120.148H275.141V127H274.084V118.273H275.107L279.88 125.142H279.965V118.273H281.005ZM287.892 120.455C287.841 120.023 287.634 119.688 287.27 119.449C286.906 119.21 286.46 119.091 285.932 119.091C285.545 119.091 285.207 119.153 284.918 119.278C284.631 119.403 284.406 119.575 284.244 119.794C284.085 120.013 284.006 120.261 284.006 120.54C284.006 120.773 284.061 120.973 284.172 121.141C284.286 121.305 284.43 121.443 284.607 121.554C284.783 121.662 284.967 121.751 285.161 121.822C285.354 121.891 285.531 121.946 285.693 121.989L286.58 122.227C286.807 122.287 287.06 122.369 287.338 122.474C287.619 122.58 287.888 122.723 288.143 122.905C288.402 123.084 288.615 123.314 288.783 123.595C288.95 123.876 289.034 124.222 289.034 124.631C289.034 125.102 288.911 125.528 288.663 125.909C288.419 126.29 288.061 126.592 287.589 126.817C287.121 127.041 286.551 127.153 285.881 127.153C285.256 127.153 284.714 127.053 284.257 126.851C283.803 126.649 283.445 126.368 283.183 126.007C282.925 125.646 282.778 125.227 282.744 124.75H283.835C283.864 125.08 283.974 125.352 284.168 125.568C284.364 125.781 284.611 125.94 284.909 126.045C285.21 126.148 285.534 126.199 285.881 126.199C286.284 126.199 286.646 126.134 286.967 126.003C287.288 125.869 287.543 125.685 287.73 125.449C287.918 125.21 288.011 124.932 288.011 124.614C288.011 124.324 287.93 124.088 287.768 123.906C287.607 123.724 287.393 123.577 287.129 123.463C286.865 123.349 286.58 123.25 286.273 123.165L285.199 122.858C284.517 122.662 283.977 122.382 283.58 122.018C283.182 121.655 282.983 121.179 282.983 120.591C282.983 120.102 283.115 119.676 283.379 119.312C283.646 118.946 284.004 118.662 284.453 118.46C284.905 118.256 285.409 118.153 285.966 118.153C286.528 118.153 287.028 118.254 287.466 118.456C287.903 118.655 288.25 118.928 288.506 119.274C288.764 119.621 288.901 120.014 288.915 120.455H287.892ZM292.357 127L289.971 118.273H291.044L292.868 125.381H292.953L294.811 118.273H296.005L297.863 125.381H297.948L299.772 118.273H300.846L298.459 127H297.368L295.442 120.045H295.374L293.448 127H292.357ZM302.162 127V118.273H307.429V119.21H303.219V122.159H307.157V123.097H303.219V126.062H307.498V127H302.162ZM309.334 127V118.273H312.283C312.965 118.273 313.525 118.389 313.962 118.622C314.4 118.852 314.723 119.169 314.934 119.572C315.144 119.976 315.249 120.435 315.249 120.949C315.249 121.463 315.144 121.919 314.934 122.317C314.723 122.714 314.401 123.027 313.966 123.254C313.532 123.479 312.976 123.591 312.3 123.591H309.914V122.636H312.266C312.732 122.636 313.107 122.568 313.391 122.432C313.678 122.295 313.885 122.102 314.013 121.852C314.144 121.599 314.209 121.298 314.209 120.949C314.209 120.599 314.144 120.294 314.013 120.033C313.882 119.771 313.674 119.57 313.387 119.428C313.1 119.283 312.721 119.21 312.249 119.21H310.391V127H309.334ZM313.442 123.08L315.59 127H314.363L312.249 123.08H313.442ZM327.408 121H326.351C326.288 120.696 326.179 120.429 326.023 120.199C325.869 119.969 325.682 119.776 325.46 119.619C325.241 119.46 324.999 119.341 324.732 119.261C324.464 119.182 324.186 119.142 323.896 119.142C323.368 119.142 322.889 119.276 322.46 119.543C322.034 119.81 321.695 120.203 321.442 120.723C321.192 121.243 321.067 121.881 321.067 122.636C321.067 123.392 321.192 124.03 321.442 124.55C321.695 125.07 322.034 125.463 322.46 125.73C322.889 125.997 323.368 126.131 323.896 126.131C324.186 126.131 324.464 126.091 324.732 126.011C324.999 125.932 325.241 125.814 325.46 125.658C325.682 125.499 325.869 125.304 326.023 125.074C326.179 124.841 326.288 124.574 326.351 124.273H327.408C327.328 124.719 327.183 125.118 326.973 125.47C326.763 125.822 326.501 126.122 326.189 126.369C325.876 126.614 325.526 126.8 325.136 126.928C324.75 127.055 324.337 127.119 323.896 127.119C323.152 127.119 322.49 126.938 321.911 126.574C321.331 126.21 320.875 125.693 320.543 125.023C320.21 124.352 320.044 123.557 320.044 122.636C320.044 121.716 320.21 120.92 320.543 120.25C320.875 119.58 321.331 119.062 321.911 118.699C322.49 118.335 323.152 118.153 323.896 118.153C324.337 118.153 324.75 118.217 325.136 118.345C325.526 118.473 325.876 118.661 326.189 118.908C326.501 119.152 326.763 119.45 326.973 119.803C327.183 120.152 327.328 120.551 327.408 121ZM336.479 122.636C336.479 123.557 336.313 124.352 335.98 125.023C335.648 125.693 335.192 126.21 334.613 126.574C334.033 126.938 333.371 127.119 332.627 127.119C331.882 127.119 331.221 126.938 330.641 126.574C330.061 126.21 329.605 125.693 329.273 125.023C328.941 124.352 328.775 123.557 328.775 122.636C328.775 121.716 328.941 120.92 329.273 120.25C329.605 119.58 330.061 119.062 330.641 118.699C331.221 118.335 331.882 118.153 332.627 118.153C333.371 118.153 334.033 118.335 334.613 118.699C335.192 119.062 335.648 119.58 335.98 120.25C336.313 120.92 336.479 121.716 336.479 122.636ZM335.456 122.636C335.456 121.881 335.33 121.243 335.077 120.723C334.827 120.203 334.488 119.81 334.059 119.543C333.632 119.276 333.155 119.142 332.627 119.142C332.098 119.142 331.62 119.276 331.191 119.543C330.765 119.81 330.425 120.203 330.172 120.723C329.922 121.243 329.797 121.881 329.797 122.636C329.797 123.392 329.922 124.03 330.172 124.55C330.425 125.07 330.765 125.463 331.191 125.73C331.62 125.997 332.098 126.131 332.627 126.131C333.155 126.131 333.632 125.997 334.059 125.73C334.488 125.463 334.827 125.07 335.077 124.55C335.33 124.03 335.456 123.392 335.456 122.636ZM345.176 118.273V127H344.154L339.398 120.148H339.313V127H338.256V118.273H339.279L344.051 125.142H344.137V118.273H345.176ZM346.814 119.21V118.273H353.359V119.21H350.615V127H349.558V119.21H346.814ZM354.329 127H353.221L356.425 118.273H357.516L360.721 127H359.613L357.005 119.653H356.937L354.329 127ZM354.738 123.591H359.204V124.528H354.738V123.591ZM363.137 118.273V127H362.08V118.273H363.137ZM372.176 118.273V127H371.154L366.398 120.148H366.313V127H365.256V118.273H366.279L371.051 125.142H371.137V118.273H372.176ZM374.291 127V118.273H379.558V119.21H375.348V122.159H379.286V123.097H375.348V126.062H379.626V127H374.291ZM381.463 127V118.273H384.412C385.094 118.273 385.653 118.389 386.091 118.622C386.528 118.852 386.852 119.169 387.062 119.572C387.273 119.976 387.378 120.435 387.378 120.949C387.378 121.463 387.273 121.919 387.062 122.317C386.852 122.714 386.53 123.027 386.095 123.254C385.661 123.479 385.105 123.591 384.429 123.591H382.043V122.636H384.395C384.861 122.636 385.236 122.568 385.52 122.432C385.807 122.295 386.014 122.102 386.142 121.852C386.273 121.599 386.338 121.298 386.338 120.949C386.338 120.599 386.273 120.294 386.142 120.033C386.011 119.771 385.803 119.57 385.516 119.428C385.229 119.283 384.849 119.21 384.378 119.21H382.52V127H381.463ZM385.571 123.08L387.719 127H386.491L384.378 123.08H385.571Z" fill="white"/>
<path d="M299.772 23.2727H300.931L301.903 24.5511L302.159 24.892L303.607 26.8182H302.448L301.494 25.5398L301.255 25.2159L299.772 23.2727ZM303.965 21.6364C303.965 22.5568 303.799 23.3523 303.467 24.0227C303.134 24.6932 302.678 25.2102 302.099 25.5739C301.519 25.9375 300.857 26.1193 300.113 26.1193C299.369 26.1193 298.707 25.9375 298.127 25.5739C297.548 25.2102 297.092 24.6932 296.759 24.0227C296.427 23.3523 296.261 22.5568 296.261 21.6364C296.261 20.7159 296.427 19.9205 296.759 19.25C297.092 18.5795 297.548 18.0625 298.127 17.6989C298.707 17.3352 299.369 17.1534 300.113 17.1534C300.857 17.1534 301.519 17.3352 302.099 17.6989C302.678 18.0625 303.134 18.5795 303.467 19.25C303.799 19.9205 303.965 20.7159 303.965 21.6364ZM302.943 21.6364C302.943 20.8807 302.816 20.2429 302.563 19.723C302.313 19.2031 301.974 18.8097 301.545 18.5426C301.119 18.2756 300.642 18.142 300.113 18.142C299.585 18.142 299.106 18.2756 298.677 18.5426C298.251 18.8097 297.911 19.2031 297.659 19.723C297.409 20.2429 297.284 20.8807 297.284 21.6364C297.284 22.392 297.409 23.0298 297.659 23.5497C297.911 24.0696 298.251 24.4631 298.677 24.7301C299.106 24.9972 299.585 25.1307 300.113 25.1307C300.642 25.1307 301.119 24.9972 301.545 24.7301C301.974 24.4631 302.313 24.0696 302.563 23.5497C302.816 23.0298 302.943 22.392 302.943 21.6364ZM311.47 17.2727H312.526V23.0511C312.526 23.6477 312.386 24.1804 312.105 24.6491C311.826 25.1151 311.433 25.483 310.924 25.7528C310.416 26.0199 309.819 26.1534 309.134 26.1534C308.45 26.1534 307.853 26.0199 307.345 25.7528C306.836 25.483 306.441 25.1151 306.16 24.6491C305.882 24.1804 305.742 23.6477 305.742 23.0511V17.2727H306.799V22.9659C306.799 23.392 306.893 23.7713 307.08 24.1037C307.268 24.4332 307.535 24.6932 307.882 24.8835C308.231 25.071 308.649 25.1648 309.134 25.1648C309.62 25.1648 310.038 25.071 310.387 24.8835C310.737 24.6932 311.004 24.4332 311.188 24.1037C311.376 23.7713 311.47 23.392 311.47 22.9659V17.2727ZM314.637 26V17.2727H319.904V18.2102H315.694V21.1591H319.631V22.0966H315.694V25.0625H319.972V26H314.637ZM326.581 19.4545C326.53 19.0227 326.323 18.6875 325.959 18.4489C325.596 18.2102 325.15 18.0909 324.621 18.0909C324.235 18.0909 323.897 18.1534 323.607 18.2784C323.32 18.4034 323.096 18.5753 322.934 18.794C322.775 19.0128 322.695 19.2614 322.695 19.5398C322.695 19.7727 322.751 19.973 322.861 20.1406C322.975 20.3054 323.12 20.4432 323.296 20.554C323.472 20.6619 323.657 20.7514 323.85 20.8224C324.043 20.8906 324.221 20.946 324.383 20.9886L325.269 21.2273C325.496 21.2869 325.749 21.3693 326.028 21.4744C326.309 21.5795 326.577 21.723 326.833 21.9048C327.091 22.0838 327.305 22.3139 327.472 22.5952C327.64 22.8764 327.724 23.2216 327.724 23.6307C327.724 24.1023 327.6 24.5284 327.353 24.9091C327.108 25.2898 326.751 25.5923 326.279 25.8168C325.81 26.0412 325.241 26.1534 324.57 26.1534C323.945 26.1534 323.404 26.0526 322.947 25.8509C322.492 25.6491 322.134 25.3679 321.873 25.0071C321.614 24.6463 321.468 24.2273 321.434 23.75H322.525C322.553 24.0795 322.664 24.3523 322.857 24.5682C323.053 24.7812 323.3 24.9403 323.599 25.0455C323.9 25.1477 324.224 25.1989 324.57 25.1989C324.974 25.1989 325.336 25.1335 325.657 25.0028C325.978 24.8693 326.232 24.6847 326.42 24.4489C326.607 24.2102 326.701 23.9318 326.701 23.6136C326.701 23.3239 326.62 23.0881 326.458 22.9062C326.296 22.7244 326.083 22.5767 325.819 22.4631C325.555 22.3494 325.269 22.25 324.962 22.1648L323.888 21.858C323.206 21.6619 322.667 21.3821 322.269 21.0185C321.871 20.6548 321.672 20.179 321.672 19.5909C321.672 19.1023 321.805 18.6761 322.069 18.3125C322.336 17.946 322.694 17.6619 323.143 17.4602C323.594 17.2557 324.099 17.1534 324.655 17.1534C325.218 17.1534 325.718 17.2543 326.155 17.456C326.593 17.6548 326.939 17.9276 327.195 18.2741C327.454 18.6207 327.59 19.0142 327.604 19.4545H326.581ZM328.984 18.2102V17.2727H335.529V18.2102H332.785V26H331.728V18.2102H328.984ZM338.217 17.2727V26H337.16V17.2727H338.217ZM347.7 21.6364C347.7 22.5568 347.534 23.3523 347.201 24.0227C346.869 24.6932 346.413 25.2102 345.833 25.5739C345.254 25.9375 344.592 26.1193 343.847 26.1193C343.103 26.1193 342.441 25.9375 341.862 25.5739C341.282 25.2102 340.826 24.6932 340.494 24.0227C340.161 23.3523 339.995 22.5568 339.995 21.6364C339.995 20.7159 340.161 19.9205 340.494 19.25C340.826 18.5795 341.282 18.0625 341.862 17.6989C342.441 17.3352 343.103 17.1534 343.847 17.1534C344.592 17.1534 345.254 17.3352 345.833 17.6989C346.413 18.0625 346.869 18.5795 347.201 19.25C347.534 19.9205 347.7 20.7159 347.7 21.6364ZM346.677 21.6364C346.677 20.8807 346.551 20.2429 346.298 19.723C346.048 19.2031 345.708 18.8097 345.279 18.5426C344.853 18.2756 344.376 18.142 343.847 18.142C343.319 18.142 342.84 18.2756 342.411 18.5426C341.985 18.8097 341.646 19.2031 341.393 19.723C341.143 20.2429 341.018 20.8807 341.018 21.6364C341.018 22.392 341.143 23.0298 341.393 23.5497C341.646 24.0696 341.985 24.4631 342.411 24.7301C342.84 24.9972 343.319 25.1307 343.847 25.1307C344.376 25.1307 344.853 24.9972 345.279 24.7301C345.708 24.4631 346.048 24.0696 346.298 23.5497C346.551 23.0298 346.677 22.392 346.677 21.6364ZM356.397 17.2727V26H355.374L350.619 19.1477H350.534V26H349.477V17.2727H350.499L355.272 24.142H355.357V17.2727H356.397Z" fill="white"/>
<path d="M50.4164 17.2727V26H49.3596V17.2727H50.4164ZM59.4558 17.2727V26H58.4331L53.6774 19.1477H53.5922V26H52.5353V17.2727H53.5581L58.3308 24.142H58.416V17.2727H59.4558ZM61.5705 26V17.2727H66.8034V18.2102H62.6273V21.1591H66.4114V22.0966H62.6273V26H61.5705ZM75.9771 21.6364C75.9771 22.5568 75.8109 23.3523 75.4785 24.0227C75.1461 24.6932 74.6902 25.2102 74.1106 25.5739C73.5311 25.9375 72.8691 26.1193 72.1248 26.1193C71.3805 26.1193 70.7186 25.9375 70.139 25.5739C69.5595 25.2102 69.1035 24.6932 68.7711 24.0227C68.4387 23.3523 68.2725 22.5568 68.2725 21.6364C68.2725 20.7159 68.4387 19.9205 68.7711 19.25C69.1035 18.5795 69.5595 18.0625 70.139 17.6989C70.7186 17.3352 71.3805 17.1534 72.1248 17.1534C72.8691 17.1534 73.5311 17.3352 74.1106 17.6989C74.6902 18.0625 75.1461 18.5795 75.4785 19.25C75.8109 19.9205 75.9771 20.7159 75.9771 21.6364ZM74.9544 21.6364C74.9544 20.8807 74.8279 20.2429 74.5751 19.723C74.3251 19.2031 73.9856 18.8097 73.5566 18.5426C73.1305 18.2756 72.6532 18.142 72.1248 18.142C71.5964 18.142 71.1177 18.2756 70.6887 18.5426C70.2626 18.8097 69.9231 19.2031 69.6703 19.723C69.4203 20.2429 69.2953 20.8807 69.2953 21.6364C69.2953 22.392 69.4203 23.0298 69.6703 23.5497C69.9231 24.0696 70.2626 24.4631 70.6887 24.7301C71.1177 24.9972 71.5964 25.1307 72.1248 25.1307C72.6532 25.1307 73.1305 24.9972 73.5566 24.7301C73.9856 24.4631 74.3251 24.0696 74.5751 23.5497C74.8279 23.0298 74.9544 22.392 74.9544 21.6364Z" fill="white"/>
<path d="M75.1603 337V328.273H76.2172V332.159H80.8706V328.273H81.9274V337H80.8706V333.097H76.2172V337H75.1603ZM85.1 328.273V337H84.0431V328.273H85.1ZM94.1394 328.273V337H93.1167L88.361 330.148H88.2757V337H87.2189V328.273H88.2417L93.0144 335.142H93.0996V328.273H94.1394ZM95.7768 329.21V328.273H102.322V329.21H99.5779V337H98.5211V329.21H95.7768Z" fill="white"/>
<path d="M498.278 327.273V336H497.255L492.5 329.148H492.414V336H491.358V327.273H492.38L497.153 334.142H497.238V327.273H498.278ZM500.751 336H499.643L502.847 327.273H503.938L507.143 336H506.035L503.427 328.653H503.359L500.751 336ZM501.16 332.591H505.626V333.528H501.16V332.591ZM508.04 327.273L510.631 334.619H510.733L513.324 327.273H514.432L511.227 336H510.136L506.932 327.273H508.04ZM516.848 327.273V336H515.791V327.273H516.848ZM524.933 330C524.839 329.713 524.716 329.456 524.562 329.229C524.412 328.999 524.231 328.803 524.021 328.641C523.814 328.479 523.578 328.355 523.314 328.27C523.049 328.185 522.76 328.142 522.444 328.142C521.927 328.142 521.457 328.276 521.034 328.543C520.61 328.81 520.274 329.203 520.024 329.723C519.774 330.243 519.649 330.881 519.649 331.636C519.649 332.392 519.775 333.03 520.028 333.55C520.281 334.07 520.623 334.463 521.055 334.73C521.487 334.997 521.973 335.131 522.512 335.131C523.012 335.131 523.453 335.024 523.833 334.811C524.217 334.595 524.515 334.291 524.728 333.899C524.944 333.504 525.052 333.04 525.052 332.506L525.376 332.574H522.751V331.636H526.075V332.574C526.075 333.293 525.922 333.918 525.615 334.449C525.311 334.98 524.89 335.392 524.353 335.685C523.819 335.974 523.206 336.119 522.512 336.119C521.74 336.119 521.061 335.938 520.475 335.574C519.893 335.21 519.439 334.693 519.112 334.023C518.788 333.352 518.626 332.557 518.626 331.636C518.626 330.946 518.718 330.325 518.903 329.774C519.091 329.22 519.355 328.749 519.696 328.359C520.037 327.97 520.44 327.672 520.906 327.464C521.372 327.257 521.885 327.153 522.444 327.153C522.904 327.153 523.333 327.223 523.731 327.362C524.132 327.499 524.488 327.693 524.801 327.946C525.116 328.196 525.379 328.496 525.589 328.845C525.799 329.192 525.944 329.577 526.024 330H524.933ZM527.973 336H526.865L530.07 327.273H531.161L534.365 336H533.257L530.65 328.653H530.581L527.973 336ZM528.382 332.591H532.848V333.528H528.382V332.591ZM534.228 328.21V327.273H540.773V328.21H538.029V336H536.972V328.21H534.228ZM543.461 327.273V336H542.404V327.273H543.461ZM552.944 331.636C552.944 332.557 552.778 333.352 552.445 334.023C552.113 334.693 551.657 335.21 551.077 335.574C550.498 335.938 549.836 336.119 549.092 336.119C548.347 336.119 547.685 335.938 547.106 335.574C546.526 335.21 546.07 334.693 545.738 334.023C545.406 333.352 545.239 332.557 545.239 331.636C545.239 330.716 545.406 329.92 545.738 329.25C546.07 328.58 546.526 328.062 547.106 327.699C547.685 327.335 548.347 327.153 549.092 327.153C549.836 327.153 550.498 327.335 551.077 327.699C551.657 328.062 552.113 328.58 552.445 329.25C552.778 329.92 552.944 330.716 552.944 331.636ZM551.921 331.636C551.921 330.881 551.795 330.243 551.542 329.723C551.292 329.203 550.952 328.81 550.523 328.543C550.097 328.276 549.62 328.142 549.092 328.142C548.563 328.142 548.085 328.276 547.656 328.543C547.229 328.81 546.89 329.203 546.637 329.723C546.387 330.243 546.262 330.881 546.262 331.636C546.262 332.392 546.387 333.03 546.637 333.55C546.89 334.07 547.229 334.463 547.656 334.73C548.085 334.997 548.563 335.131 549.092 335.131C549.62 335.131 550.097 334.997 550.523 334.73C550.952 334.463 551.292 334.07 551.542 333.55C551.795 333.03 551.921 332.392 551.921 331.636ZM561.641 327.273V336H560.619L555.863 329.148H555.778V336H554.721V327.273H555.744L560.516 334.142H560.602V327.273H561.641Z" fill="white"/>
<path d="M382.286 178H379.978L386.654 159.818H388.926L395.603 178H393.294L387.861 162.695H387.719L382.286 178ZM383.138 170.898H392.442V172.851H383.138V170.898ZM412.852 159.818V178H410.722L400.814 163.724H400.636V178H398.435V159.818H400.565L410.508 174.129H410.686V159.818H412.852ZM427.201 164.364C427.095 163.464 426.662 162.766 425.905 162.268C425.147 161.771 424.218 161.523 423.117 161.523C422.312 161.523 421.608 161.653 421.004 161.913C420.407 162.174 419.939 162.532 419.602 162.988C419.27 163.443 419.104 163.961 419.104 164.541C419.104 165.027 419.22 165.444 419.451 165.793C419.687 166.136 419.989 166.423 420.356 166.654C420.723 166.879 421.108 167.065 421.51 167.213C421.913 167.355 422.283 167.471 422.62 167.56L424.467 168.057C424.94 168.181 425.467 168.353 426.047 168.572C426.633 168.791 427.192 169.09 427.725 169.468C428.263 169.841 428.707 170.321 429.057 170.907C429.406 171.493 429.58 172.212 429.58 173.064C429.58 174.046 429.323 174.934 428.808 175.727C428.299 176.52 427.553 177.151 426.571 177.618C425.594 178.086 424.407 178.32 423.011 178.32C421.709 178.32 420.581 178.109 419.628 177.689C418.681 177.269 417.936 176.683 417.391 175.931C416.852 175.18 416.548 174.307 416.477 173.312H418.749C418.809 173.999 419.039 174.567 419.442 175.017C419.85 175.461 420.365 175.792 420.987 176.011C421.614 176.224 422.289 176.331 423.011 176.331C423.851 176.331 424.606 176.195 425.275 175.923C425.943 175.644 426.473 175.26 426.864 174.768C427.254 174.271 427.45 173.691 427.45 173.028C427.45 172.425 427.281 171.933 426.944 171.555C426.606 171.176 426.162 170.868 425.612 170.631C425.061 170.395 424.467 170.187 423.827 170.01L421.59 169.371C420.17 168.962 419.045 168.379 418.217 167.622C417.388 166.864 416.974 165.873 416.974 164.648C416.974 163.63 417.249 162.742 417.799 161.984C418.356 161.221 419.101 160.629 420.037 160.209C420.978 159.783 422.028 159.57 423.188 159.57C424.36 159.57 425.402 159.78 426.313 160.2C427.225 160.614 427.947 161.182 428.479 161.904C429.018 162.627 429.302 163.446 429.332 164.364H427.201ZM436.503 178L431.531 159.818H433.768L437.568 174.626H437.746L441.616 159.818H444.102L447.973 174.626H448.151L451.95 159.818H454.187L449.216 178H446.943L442.93 163.511H442.788L438.776 178H436.503ZM456.931 178V159.818H467.904V161.771H459.132V167.915H467.336V169.868H459.132V176.047H468.046V178H456.931ZM471.872 178V159.818H478.016C479.436 159.818 480.602 160.061 481.513 160.546C482.425 161.026 483.1 161.685 483.538 162.526C483.976 163.366 484.195 164.322 484.195 165.393C484.195 166.465 483.976 167.415 483.538 168.243C483.1 169.072 482.428 169.723 481.522 170.196C480.617 170.664 479.46 170.898 478.051 170.898H473.08V168.909H477.98C478.951 168.909 479.732 168.767 480.324 168.483C480.922 168.199 481.354 167.796 481.62 167.276C481.892 166.749 482.028 166.121 482.028 165.393C482.028 164.665 481.892 164.029 481.62 163.485C481.348 162.94 480.913 162.52 480.315 162.224C479.717 161.922 478.927 161.771 477.945 161.771H474.074V178H471.872ZM480.43 169.832L484.905 178H482.348L477.945 169.832H480.43Z" fill="white"/>
<path d="M169.286 271H166.978L173.654 252.818H175.926L182.603 271H180.294L174.861 255.695H174.719L169.286 271ZM170.138 263.898H179.442V265.851H170.138V263.898ZM199.852 252.818V271H197.722L187.814 256.724H187.636V271H185.435V252.818H187.565L197.508 267.129H197.686V252.818H199.852ZM214.201 257.364C214.095 256.464 213.662 255.766 212.905 255.268C212.147 254.771 211.218 254.523 210.117 254.523C209.312 254.523 208.608 254.653 208.004 254.913C207.407 255.174 206.939 255.532 206.602 255.988C206.27 256.443 206.104 256.961 206.104 257.541C206.104 258.027 206.22 258.444 206.451 258.793C206.687 259.136 206.989 259.423 207.356 259.654C207.723 259.879 208.108 260.065 208.51 260.213C208.913 260.355 209.283 260.471 209.62 260.56L211.467 261.057C211.94 261.181 212.467 261.353 213.047 261.572C213.633 261.791 214.192 262.09 214.725 262.468C215.263 262.841 215.707 263.321 216.057 263.907C216.406 264.493 216.58 265.212 216.58 266.064C216.58 267.046 216.323 267.934 215.808 268.727C215.299 269.52 214.553 270.151 213.571 270.618C212.594 271.086 211.407 271.32 210.011 271.32C208.709 271.32 207.581 271.109 206.628 270.689C205.681 270.269 204.936 269.683 204.391 268.931C203.852 268.18 203.548 267.307 203.477 266.312H205.749C205.809 266.999 206.039 267.567 206.442 268.017C206.85 268.461 207.365 268.792 207.987 269.011C208.614 269.224 209.289 269.331 210.011 269.331C210.851 269.331 211.606 269.195 212.275 268.923C212.943 268.644 213.473 268.26 213.864 267.768C214.254 267.271 214.45 266.691 214.45 266.028C214.45 265.425 214.281 264.933 213.944 264.555C213.606 264.176 213.162 263.868 212.612 263.631C212.061 263.395 211.467 263.187 210.827 263.01L208.59 262.371C207.17 261.962 206.045 261.379 205.217 260.622C204.388 259.864 203.974 258.873 203.974 257.648C203.974 256.63 204.249 255.742 204.799 254.984C205.356 254.221 206.101 253.629 207.037 253.209C207.978 252.783 209.028 252.57 210.188 252.57C211.36 252.57 212.402 252.78 213.313 253.2C214.225 253.614 214.947 254.182 215.479 254.904C216.018 255.627 216.302 256.446 216.332 257.364H214.201ZM223.503 271L218.531 252.818H220.768L224.568 267.626H224.746L228.616 252.818H231.102L234.973 267.626H235.151L238.95 252.818H241.187L236.216 271H233.943L229.93 256.511H229.788L225.776 271H223.503ZM243.931 271V252.818H254.904V254.771H246.132V260.915H254.336V262.868H246.132V269.047H255.046V271H243.931ZM258.872 271V252.818H265.016C266.436 252.818 267.602 253.061 268.513 253.546C269.425 254.026 270.1 254.685 270.538 255.526C270.976 256.366 271.195 257.322 271.195 258.393C271.195 259.465 270.976 260.415 270.538 261.243C270.1 262.072 269.428 262.723 268.522 263.196C267.617 263.664 266.46 263.898 265.051 263.898H260.08V261.909H264.98C265.951 261.909 266.732 261.767 267.324 261.483C267.922 261.199 268.354 260.796 268.62 260.276C268.892 259.749 269.028 259.121 269.028 258.393C269.028 257.665 268.892 257.029 268.62 256.485C268.348 255.94 267.913 255.52 267.315 255.224C266.717 254.922 265.927 254.771 264.945 254.771H261.074V271H258.872ZM267.43 262.832L271.905 271H269.348L264.945 262.832H267.43Z" fill="white"/>
<path d="M382.286 271H379.978L386.654 252.818H388.926L395.603 271H393.294L387.861 255.695H387.719L382.286 271ZM383.138 263.898H392.442V265.851H383.138V263.898ZM412.852 252.818V271H410.722L400.814 256.724H400.636V271H398.435V252.818H400.565L410.508 267.129H410.686V252.818H412.852ZM427.201 257.364C427.095 256.464 426.662 255.766 425.905 255.268C425.147 254.771 424.218 254.523 423.117 254.523C422.312 254.523 421.608 254.653 421.004 254.913C420.407 255.174 419.939 255.532 419.602 255.988C419.27 256.443 419.104 256.961 419.104 257.541C419.104 258.027 419.22 258.444 419.451 258.793C419.687 259.136 419.989 259.423 420.356 259.654C420.723 259.879 421.108 260.065 421.51 260.213C421.913 260.355 422.283 260.471 422.62 260.56L424.467 261.057C424.94 261.181 425.467 261.353 426.047 261.572C426.633 261.791 427.192 262.09 427.725 262.468C428.263 262.841 428.707 263.321 429.057 263.907C429.406 264.493 429.58 265.212 429.58 266.064C429.58 267.046 429.323 267.934 428.808 268.727C428.299 269.52 427.553 270.151 426.571 270.618C425.594 271.086 424.407 271.32 423.011 271.32C421.709 271.32 420.581 271.109 419.628 270.689C418.681 270.269 417.936 269.683 417.391 268.931C416.852 268.18 416.548 267.307 416.477 266.312H418.749C418.809 266.999 419.039 267.567 419.442 268.017C419.85 268.461 420.365 268.792 420.987 269.011C421.614 269.224 422.289 269.331 423.011 269.331C423.851 269.331 424.606 269.195 425.275 268.923C425.943 268.644 426.473 268.26 426.864 267.768C427.254 267.271 427.45 266.691 427.45 266.028C427.45 265.425 427.281 264.933 426.944 264.555C426.606 264.176 426.162 263.868 425.612 263.631C425.061 263.395 424.467 263.187 423.827 263.01L421.59 262.371C420.17 261.962 419.045 261.379 418.217 260.622C417.388 259.864 416.974 258.873 416.974 257.648C416.974 256.63 417.249 255.742 417.799 254.984C418.356 254.221 419.101 253.629 420.037 253.209C420.978 252.783 422.028 252.57 423.188 252.57C424.36 252.57 425.402 252.78 426.313 253.2C427.225 253.614 427.947 254.182 428.479 254.904C429.018 255.627 429.302 256.446 429.332 257.364H427.201ZM436.503 271L431.531 252.818H433.768L437.568 267.626H437.746L441.616 252.818H444.102L447.973 267.626H448.151L451.95 252.818H454.187L449.216 271H446.943L442.93 256.511H442.788L438.776 271H436.503ZM456.931 271V252.818H467.904V254.771H459.132V260.915H467.336V262.868H459.132V269.047H468.046V271H456.931ZM471.872 271V252.818H478.016C479.436 252.818 480.602 253.061 481.513 253.546C482.425 254.026 483.1 254.685 483.538 255.526C483.976 256.366 484.195 257.322 484.195 258.393C484.195 259.465 483.976 260.415 483.538 261.243C483.1 262.072 482.428 262.723 481.522 263.196C480.617 263.664 479.46 263.898 478.051 263.898H473.08V261.909H477.98C478.951 261.909 479.732 261.767 480.324 261.483C480.922 261.199 481.354 260.796 481.62 260.276C481.892 259.749 482.028 259.121 482.028 258.393C482.028 257.665 481.892 257.029 481.62 256.485C481.348 255.94 480.913 255.52 480.315 255.224C479.717 254.922 478.927 254.771 477.945 254.771H474.074V271H471.872ZM480.43 262.832L484.905 271H482.348L477.945 262.832H480.43Z" fill="white"/>
</svg>
