<svg width="645" height="410" viewBox="0 0 645 410" fill="none" xmlns="http://www.w3.org/2000/svg">
<rect width="645" height="410" rx="20" fill="white"/>
<rect x="432" y="327" width="189" height="68" rx="20" fill="#7B7B7B"/>
<rect x="558" y="336" width="50" height="50" rx="20" fill="#979797"/>
<rect x="501" y="336" width="50" height="50" rx="20" fill="#979797"/>
<rect x="444" y="336" width="50" height="50" rx="20" fill="#979797"/>
<rect x="24" y="15" width="76" height="128" rx="20" fill="#7B7B7B"/>
<rect x="37" y="83" width="50" height="50" rx="20" fill="#979797"/>
<rect x="37" y="24" width="50" height="50" rx="20" fill="#979797"/>
<rect x="24" y="327" width="133" height="68" rx="20" fill="#7B7B7B"/>
<rect x="94" y="336" width="50" height="50" rx="20" fill="#979797"/>
<rect x="37" y="336" width="50" height="50" rx="20" fill="#979797"/>
<rect x="108" y="15" width="436" height="306" rx="20" fill="#7B7B7B"/>
<rect x="115" y="117" width="422" height="196" rx="20" fill="#979797"/>
<rect x="338" y="221" width="189" height="82" rx="20" fill="#CECECE"/>
<rect x="125" y="221" width="189" height="82" rx="20" fill="#CECECE"/>
<rect x="338" y="127" width="189" height="82" rx="20" fill="#CECECE"/>
<rect x="125" y="127" width="189" height="82" rx="20" fill="#CECECE"/>
<rect x="126" y="26" width="401" height="82" rx="20" fill="#CECECE"/>
</svg>
